<svg xmlns="http://www.w3.org/2000/svg" viewBox="0 0 300 160"><path fill="none" stroke="#000" stroke-linecap="round" stroke-width="12" d="M150 119c27 0 54-11 74-30a107 107 0 0 0-149 0c20 19 47 30 75 30zM13 87c6-1 17 2 21 5 17 14 2-18 17-17 8 0 14 4 24 14m-45 37c5-3 17-2 23-1 19 4 2-24 29-29m-9 49c5-3 8-2 13-3 19-1-2-12 18-33m120-20c50-47 11 22 49 1 2-1 4-6 12-4m-14 41c-4-3-11-4-13-4-37 15-10-30-45-25m13 47c-3-3-8-1-12-2-19-6 3-26-22-33"/><path d="M120 57c14-10-12-17-10-28-3-15 14-25 26-18 15 7 10 25 1 34-2 4-1 7 2 9 4 1 20 3 23 0 3-2 3-6-1-12-8-8-10-23 1-30 11-8 28 0 28 13 5 15-23 18-14 32m-45-23c15-8-7-27-12-11-3 7 5 15 12 11zm-7-5c-6-15 19 0 1 1zm56 4c14-10-14-26-16-8-1 9 10 13 16 8zm-10-5c-3-13 16 1 3 3-1 0-3-1-3-3"/></svg>