<?xml version="1.0" encoding="utf-8"?>
<!-- Generator: Adobe Illustrator 28.0.0, SVG Export Plug-In . SVG Version: 6.00 Build 0)  -->
<svg version="1.1" id="レイヤー_1" xmlns="http://www.w3.org/2000/svg" xmlns:xlink="http://www.w3.org/1999/xlink" x="0px"
	 y="0px" viewBox="0 0 520 320" style="enable-background:new 0 0 520 320;" xml:space="preserve">
<style type="text/css">
	.st0{fill:none;stroke:#000000;}
	.st1{fill:none;stroke:#000000;stroke-linecap:round;stroke-linejoin:round;}
</style>
<rect x="10" y="10" class="st0" width="500" height="300"/>
<path class="st1" d="M202.8,94l6.9-1.1l13.9-3.3l6.9-1.3l6.9-1l6.9-0.8l6.9-0.4l20.8,0.9l6.9,0.7l6.9,1.5l6.9,2.2l6.9,1.9l6.9,1.1
	l20.8,2.4l13.9,0.9l6.9,1.2l6.9,1.7l6.9,2l6.9,2.3l6.9,3l0.8,0.8 M377,214.4l-0.8,0.9l-6.9,3.2l-6.9,2.1l-13.9,3.1l-13.9,3.5
	l-6.9,1.4l-6.9,0.6l-6.9-0.2l-6.9-0.4l-13.9-0.3l-13.9-0.9l-6.9-0.9l-13.9-2.4l-6.9-0.9l-6.9-0.4l-6.9-0.1l-6.9,0.4l-6.9,0.8
	l-6.9,0.5l-6.9-0.4 M377,142.2l-7.5-1l-10.3-0.9l-14.3-1.6l-7.3-0.3l-15.8,0.7l-5.3-0.4l-7-1.3 M306.6,136.7l-7.2-1.5l-5.6-1.6
	l-4-1.5 M284.5,129.8l-4.1-1.4l-1.4-0.3 M276.3,127.6l-11-2 M262.4,125.2l-3.1-0.3 M255.9,124.7l-7.4,0.1 M244.7,125.1l-7.4,0.8
	 M233.6,126.4l-7.1,1.2 M219.7,129.1l-3.3,0.8 M217.2,203.1l4.3,4.8 M215.2,179.2l3.9,6.4 M214,169.4l4.1,6.2 M220,178.7l3.8,6.3
	 M246.2,210.9l1.9,1.9 M213.6,161.6l0.4,0.6 M216.5,165.4l3.4,4.9l2.9,4.8 M228.4,184.5l0.3,0.5 M214.2,155.1l4.8,6.7 M221.4,165.1
	l2.1,3.3 M225.4,171.5l1.9,3.2 M231.1,181l2.1,3.1 M253.7,208.2l2,2.2 M212.9,145.8l8.7,12.1 M224,161.3l2.1,3.3 M228.1,167.9l4.9,8
	l2.1,3.2l4.1,5.5 M256.9,206.1l2.9,3.2l3.5,3.2 M212.9,138.7l3.2,4.1l5.9,8 M224.4,154.2l3.4,5l5,8.3 M234.9,170.7l6.8,9.7
	 M273,216.2l3.8,3.3 M212.6,131.7l2.5,2.9 M220.1,141l4.8,6.3 M236,163.8l3.1,5l10,14 M273.9,212.4l2,2 M211.8,124.7l7.4,8.2
	l12.3,15.6l4.6,6.5l7.5,11.8 M248.3,173.3l6,8.9 M272.4,205.8l6.1,6.8 M209.9,116.4l3.6,4.2l8.3,8.9l10.3,12.5l4.7,5.9l2.3,3.2
	l3.4,5.2 M251.6,169.8l3.3,5.1l4.3,7.2 M282.8,212.9l1.8,2.1 M207.2,106.1l6.7,8.7l2.4,2.8l11.1,12l10.2,12.2l4.7,5.9l3.6,5.2
	 M248.1,156.4l2.3,3.4 M254.8,166.4l3.1,5l5,8.8 M280,204.4l6.9,8.9 M203.9,96.3l4.6,5l10.9,13.2l10.8,11.9l14.1,16.5 M248.9,149.5
	l7.9,12l3,4.9 M265.6,176.9l2.7,4.9 M283.8,204.2l1.8,2.5 M205.9,93.5l7.4,7.5l7.9,9.1 M223.7,112.9l22.6,25.2l2.4,3l2.3,3.3
	l6.7,10.6l6.9,11.6 M268.4,173.6l1.9,3.6 M287.3,203.8l0.6,0.8 M210.2,92.8l6.1,5.7l2.3,2.4l18.7,20.7 M240.1,124.7l6.9,7.3l3.7,4.2
	 M253.1,139.2l3.2,5.1l7.1,12.3 M267.3,163.3l1.9,3.4 M271.1,170.3l3.7,7.1 M276.7,180.9l0.8,1.4 M292.3,204.8l2,2.4 M300.9,213.5
	l2.4,1.8 M305.7,217.1l4.8,3.1 M214.2,91.8l5,4.4l4.8,4.8l9.9,10.4l7.9,8.8l7.1,7.3 M253.9,132.8l1.2,1.4l2.2,3.1l3,5.2
	 M264.1,149.8l5.7,10.3 M271.7,163.5l2,3.5 M275.6,170.5l3.8,7.2 M281.2,181.2l0.5,1 M293.8,201l1.1,1.4 M301.3,209.3l2.3,2.1
	 M306,213.3l2.4,1.8 M313.2,218.6l2.4,1.5 M218.4,90.8l6.2,5.4l10,9.8l5.1,5.3l8.2,9l4.1,4.2 M254.6,127.1l3.5,3.9l2.2,3l2,3.3
	l8,16.1 M272.2,156.9l6,10.3 M280.1,170.8l5.7,10.8 M299.7,202.3l4.4,4.6 M311.1,213.2l2.4,1.9 M222.5,89.9l5,4.3l5,4.6l10.5,10.1
	l5.6,5.8l10.2,11l2.2,2.5l2.1,2.8l2,3.1l1.8,3.4l6.8,14.2l5,8.6 M280.7,163.9l4,7.2 M286.6,174.8l3.9,7.4 M301.6,198.6l0.8,0.9
	 M304.6,202l2.2,2.4 M309,206.7l4.6,4.4 M226.6,89.1l11.4,9.8l11.1,10.4l5.6,5.8l8.9,10.6l4,5.7l1.9,3.2l1.7,3.4l4.9,10.4l1.8,3.5
	l7.2,12.3 M287.2,167.8l3.9,7.3 M293,178.6l1.8,3.4 M307.2,199.2l2.1,2.5 M230.7,88.3l5.1,4l5.1,4.3l14.1,13l2.7,2.8l2.4,2.8l6,7.8
	l2.9,4.1 M272.9,133.4l1.8,3.2 M278,143.2l3.6,6.9 M283.6,153.7l6.2,10.7 M293.7,171.7l3.8,7.1 M311.9,199l4.3,5.2 M326.4,213.2
	l2.7,2 M235,87.7l6.1,4.7l5.2,4.5l11.2,10.2l5.2,5.3l2.1,2.7l5.6,7.9l5.9,9.1l1.9,3.1l7.1,13.4l5.1,8.8 M292.3,160.9l4,7.3
	 M300.2,175.6l3.9,6.6 M312.5,193.7l1.8,2.5 M331.8,213.3l2.7,2.1 M239.4,87.2l2.1,1.5l4.8,3.9l13.4,12l5.2,5l3.1,3.8 M269.8,116
	l5.6,8.6 M277.5,127.7l4.9,7.8l12.4,22 M300.9,168.6l4,7.4 M321,199.1l2.4,2.7 M243.8,86.7l2.9,2.1l4.9,4.1l13.1,11.4l2.5,2.3
	l2.2,2.4l1.9,2.5l8.5,13.1 M281.8,128l7.6,12.7 M291.4,143.9l5.9,10.2 M301.3,161.3l2.1,3.9 M305.5,169.1l3,5.6l2.9,4.8
	 M313.3,182.3l1.7,2.4 M319,190.5l2.1,3.1 M248.4,86.4l5.8,4.5l12.8,10.7l2.5,2.2l2.2,2.4l1.9,2.5l6.4,10.1 M282,122l4.1,6.5
	 M288.1,131.6l10.6,17.3l5,8.8 M305.8,161.5l4.2,8.1 M312,173.3l3.9,6.2 M317.8,182.3l1.8,2.5 M323.6,190.9l3.3,4.5l4,4.2
	 M339.6,207.6l2.9,2.7 M253.2,86.3l16.3,12.5l2.4,2.2l2.2,2.3l1.9,2.6l1.8,2.7l9.7,15.4l5.8,9.5l7.9,12.1l4,6.5l3.1,5.6
	 M310.3,161.9l5.2,9.9l3,4.7 M320.4,179.4l1.9,2.8 M330.9,194.1l5.5,5.8 M342.3,205.6l2.9,2.9 M258.5,86.6l11,7.8l2.6,2l2.4,2.2
	l1.1,1.2 M277.6,102.1l2.8,4l7.6,12l7.7,12.6l9,13.5 M308.6,150.6l2,3.6 M312.7,158.2l2.1,4.1 M317,166.4l4.1,6.9 M329.2,185.2
	l4.6,6.2 M345.1,203.4l3,3 M264.1,86.8l8,5.3l2.5,1.9l2.4,2.2l2.1,2.4l1.9,2.6l10.5,15.9 M295.3,123.2l4.8,7.8l8.1,12.1l2.9,4.6
	 M317.3,158.9l3.3,5.9l2.2,3.5l7.5,10.9 M337,188.6l2.5,3.1 M351,204.1l2.9,3.1 M269.7,87.1l4.9,3.2l2.5,1.9l2.3,2.1l2.1,2.3
	l1.9,2.5l11.5,16.7l7.5,12.3l9.2,13.9 M313.5,145l4.1,6.9 M319.8,155.8l4.5,7.6 M333.3,176.3l2.2,3.2 M340.2,185.9l5.3,6.2
	 M275.1,87.4l4.4,3.2l2.3,2l2.1,2.2l1.9,2.4l11.5,15.9l7.5,12.1l6.4,9.5l6.8,11 M320.2,149.1l4.6,7.6 M327.1,160.5l15,21.2l3.9,4.7
	 M348.8,189.4l2.8,3.1 M357.2,198.9l5.8,6.4 M280.2,88.1l3.8,3.1l2,2.1l1.9,2.2l11.4,15l4.6,7.3 M306,120.7l6.5,9.4 M314.5,133.3
	l6.9,11.2l9.8,14.8l3.5,4.9 M337,167.4l8.1,11.7l4,4.7 M363.3,199.4l5.7,6.3 M285.7,89.2l2.8,2.6l1.9,2l7.4,9l3.9,5.1l4.6,7
	 M310.2,120.8l4.4,6.1 M316.8,130.1l6.8,11.3l9.2,12.9 M335.2,157.8l2.3,3.4 M339.8,164.5l5.7,8.5l3.8,5.1 M355,184.3l5.9,6.1
	 M291.7,91.1l6.6,7.2l5.7,7.1l7.5,11l6.5,8.9l2.1,3.1l4.7,7.9 M327,139.8l2.6,3.6 M335.3,150.8l9.6,14.1 M347.3,168.3l5.1,6.8
	 M364.2,187.9l2.9,3.1 M369.9,194.1l2.7,3.1 M297.5,92.7l5.3,5.7l3.8,4.5l10.7,14.8 M319.5,120.7l3.2,4.5l2.8,4.6 M327.4,133
	l3.3,5.1l8.4,11.1l11.2,16.1 M358.4,175.4l2.9,3.3 M373.1,191.4l2.7,3.1 M303.1,93.9l4.2,4.5l3.7,4.5l5.6,7.7l6.6,8.6l3.2,4.5
	 M328.4,126.7l2.9,4.8l3.5,5.1 M337.5,140.1l4.1,5.5l3.9,5.6 M348,154.9l2.6,3.6 M356,165.4l5.7,6.8 M367.5,178.9l3,3.3
	 M373.4,185.4l2.8,3.2 M308.6,94.7l4.2,4.6 M314.6,101.4l6.8,9l7,8.7l5.2,7.7 M335.6,130l4.8,6.7 M343.1,140.2l7.8,11.1
	 M353.5,154.9l8.5,10.4 M314.1,95.3l2.3,2.6l7.6,9.7l8.3,10.1 M334.6,120.7l7.8,11.1l3.8,5.1 M348.8,140.4l5.1,7.3 M359.3,155l5.9,7
	 M319.4,95.9l7.1,8.9l12.1,14.6l10.7,14.3 M351.9,137l9,12.5l7.4,9 M371.2,162.1l2.8,3.5 M324.5,96.4l4.6,5.7l12.4,14.3l6.2,7.7
	 M350.2,127.4l2.4,3.2 M362.4,144l2.8,3.6 M368.2,151.3l6,7.3 M329.7,96.9l12.2,13.7l6.4,7.6 M355.8,127.6l2.4,3.1 M362.8,137.1
	l8.1,10.5 M373.9,151.4l3,3.7 M335,97.2l9.9,10.6l12.9,15.3l5.8,7.6 M340.9,97.7l7.1,7.5l16.5,19.6 M366.8,127.8l2.1,3 M373.3,137
	l2.6,3.4 M347.6,98.8l3.6,3.9l7.2,8.6l4,4.5 M365.2,118.8l2.6,3 M370,124.8l6.2,9.1 M354.2,100.4l6.9,8.2l4,4.3 M368,115.9l4,4.5
	l2.3,3l2.7,4.1 M360.2,102.1l2.2,2.6 M365,107.4l8.4,8.5 M366.3,103.9l10.7,10.5 M374.4,107.1l2.6,2.5 M204.3,93.8l-1.1,1.2
	 M209.4,92.9l-4.7,5.1 M215.7,91.4l-5.2,5l-4.4,4.9 M223.1,89.8l-2.7,2.1l-4.8,4.3l-4.8,5l-3.7,4.3 M231.1,88.3l-5.5,3.8l-6,5.3
	 M214.7,102.3l-6.5,7.5 M238.1,87.3l-7,4.9l-4.9,4l-3.7,3.4 M217.4,104.8l-3.9,4.3l-4.2,5.1 M244.1,86.7l-7.7,5.7l-4.8,4.1l-6.2,5.7
	 M222.8,104.7l-6.6,7l-2.6,3l-3.1,4.1 M249.5,86.4l-10.1,8l-9.7,9.1l-5.3,5.2l-5.3,5.8l-2.5,3l-2.3,3.1l-2.5,3.9 M254.4,86.4
	l-11.9,10.3l-12.4,11.9l-5.4,5.6l-2.6,3l-2.4,3.1l-4.2,6.3l-2.8,4.7 M259.1,86.6l-2.7,2.4l-18,17.1l-6.7,6.6 M229.1,115.6l-3.8,4.6
	l-5.5,7.9 M217.6,131.3l-4.3,6.9 M263.8,86.8l-4.5,4.1L246.7,104l-7.9,7.3l-2.7,2.7l-3.9,4.4 M229.8,121.6l-2.3,3.2 M225.2,128
	l-4.4,6.5 M218.5,137.8l-2.3,3.4 M213.9,144.7l-1.1,1.6 M268.5,87l-2,1.6l-4.2,4.2l-10,11.6l-2.2,2.3L239.3,117l-2.6,3l-3.5,4.8
	 M228.6,131.2l-8.3,11.4l-3.5,5.2 M273.4,87.3l-3.7,3.1l-2.1,2.1l-4.2,4.8l-7.6,9.9l-2.2,2.5l-2.5,2.5l-5.7,5.2l-2.8,2.8l-3.8,4.6
	 M236.5,128l-7.2,9.6 M226.9,140.8l-3.7,5l-2.4,3.5l-3.4,5.5 M215.2,158.5l-1.6,2.8 M278.2,87.7l-3.5,2.5l-4,4l-4.2,5l-7.4,10.6
	l-2.1,2.6l-2.5,2.7l-4.2,3.9 M247.4,121.7l-3.9,4.4l-3.7,4.9 M237.3,134.3l-5,6.3 M227.3,147.1l-4.8,7.3 M216,165.5l-2.1,3.4
	 M282.5,88.6l-3,2l-1.9,1.6l-4,4l-4.1,5.1l-2,2.8l-5.5,8.4l-2.2,2.8l-2.5,2.7l-7.9,7.9l-14.3,17.5 M227.7,153.9l-4.6,7.5
	 M286.7,89.5l-2.5,1.7l-1.9,1.5l-1.9,1.7l-3.9,4.1l-4.2,5.1l-2,2.8l-5.6,8.8l-2.2,2.9l-2.3,2.7l-7.5,7.8l-6.6,8.1 M238,146.3l-5,7.1
	 M230.4,157.2l-2.5,3.8 M225.7,164.7l-2.2,3.7 M221.3,171.9l-2.3,3.6 M290.3,90.7l-3.7,2.6l-1.9,1.6l-3.8,3.8l-4.1,4.6l-2.1,2.6
	l-3,4.3 M269.7,113.2l-3.9,5.9 M263.7,121.9l-5.7,6.3l-6.4,7.8 M248.9,139.4l-5.5,6.6 M240.8,149.4l-7.8,11.1 M230.5,164.2l-2.4,3.7
	 M225.8,171.5l-6.8,10.8 M216.6,185.8l-0.5,0.7 M293.8,91.7l-3,2.1l-3.9,3.5l-3.8,4l-5.2,6 M275.8,110l-3,4.3l-2.8,4.5 M268.1,121.7
	l-2,2.7 M264,127l-3.3,4l-6.3,8.2 M251.7,142.6L241,156.4 M238.2,160.1l-5.4,7.4 M228.1,174.6l-2.3,3.6 M297.3,92.7L293,96l-2,1.9
	l-3.8,4l-8.3,9.6l-2.1,2.7l-2.9,4.3 M272.2,121.6l-2.7,4.3l-9.9,13.2 M257,142.6l-6.5,8.7l-11.1,14l-4.1,5.4 M228.1,181.3l-2.2,3.5
	 M215.1,200.4l-0.3,0.4 M300.7,93.5l-5.5,4.7l-3.9,4.2l-10.1,12.1l-2.1,2.7l-2.8,4.3 M274.6,124.5l-2.7,4.3l-6.3,8.7l-10.9,15.7
	 M252,156.5l-2.7,3.3 M246.5,163.2l-8.4,10.6 M235.4,177.4l-2.5,3.5 M230.6,184.3l-0.5,0.7 M304.5,94.1l-4.8,4.3l-2.1,2.1l-3.9,4.6
	l-3.7,4.8l-6.3,7.8l-2,2.8l-6.5,10.1 M273.2,133.4l-6.6,9.4 M264.2,146.2l-3.4,5.3l-3.6,5.1 M252.1,163.1l-8.4,10.4 M240.8,177.1
	l-2.7,3.5 M222.3,202.6l-0.1,0.1 M217.4,208.2l-2.3,2.6 M308.3,94.6l-4.1,3.8l-4.3,4.5l-2,2.3l-5.5,7.6l-5.2,6.7 M285.1,122.3
	l-6.7,9.9l-6.5,9.1l-3.4,5.1 M266.5,149.8l-4.3,6.8 M259.8,159.9l-2.5,3.2 M254.7,166.4l-2.7,3.4 M249.3,173.3l-5.5,7 M312.1,95.1
	l-5.7,5.5l-4.3,4.8l-1.9,2.5l-4.6,6.6 M293.8,117.2l-5.2,7L274,144.8l-8.4,13.5l-8.3,11.4 M254.7,173.2l-2.6,3.5 M249.4,180.2
	l-2.2,2.8 M227.9,207.7l-4.9,5.1 M315.9,95.5l-4.9,5l-4.4,5l-2.1,2.5l-2.8,3.9 M299.9,114.6L286,134.4 M284,137.1l-4.5,6.1
	 M277.2,146.6l-8.3,13.4 M266.8,163.3l-4.6,6.5 M257.3,176.6l-2.5,3.5 M319.6,95.9l-6.4,6.8l-4.4,5.3l-2.1,2.7l-11.5,17l-7,9.8
	 M286.2,140.4l-5.7,8l-8.2,13.4l-5.5,8.1 M239.4,205.6l-1.1,1.4 M323.3,96.3l-3.4,3.6l-4.4,5.2l-4.4,5.5l-3.1,4.2 M306.1,117.8
	l-6.6,10.2l-13.3,19 M281.8,153.6l-2.1,3.4 M277.7,160.4l-3,5l-3.3,5 M266.9,176.9l-3.4,4.9 M243.6,206l-4.9,5.8 M327.2,96.8
	l-2.9,2.9l-2.2,2.6l-8.7,11.2l-4,5.8l-6.4,10.3 M301,132.5l-5,7l-6.2,9.1l-9.5,15.2 M278.1,167.2l-3.3,5.1l-5.7,8.3 M247.9,206.1
	l-2.3,2.6 M331.7,97l-2.7,2.6l-2.3,2.5l-5.4,6.9 M319.2,111.9l-5.4,7.4l-7.4,12.1l-8.1,11.3l-7.2,11.3 M289,157.3l-4.2,6.8
	 M282.7,167.4l-5.5,8.4l-4.5,6.5 M336.7,97.4l-2.6,2.3l-2.4,2.5l-2.2,2.6l-10.8,14.4l-2.1,3.1l-2.8,4.7 M311.9,130l-2.9,4.5
	l-8.3,11.2l-3.1,4.9 M293.5,157.4l-2.1,3.4 M289.4,164.3l-5.4,8.5l-3.4,5 M278.4,181l-0.9,1.3 M342,97.8l-5,4.4l-2.5,2.6l-2.2,2.7
	l-12,16.2 M318.2,126.9l-4.7,7.9l-2,2.9l-6.3,8l-2.1,3.1l-9.2,15.7 M291.8,168l-2.1,3.5 M287.4,174.9l-2.2,3.3 M282.9,181.4
	l-0.6,0.9 M346.9,98.7l-4.3,3.7l-2.6,2.6l-2.5,2.7l-2.3,2.8l-4.3,5.8l-7.2,9l-2.2,3.2l-4.8,8.1 M314.8,139.4l-5.2,6.6l-2.1,2.9
	l-2,3.3l-3,5.4 M298.4,164.7l-2.1,3.5 M294.1,171.7l-2.2,3.5 M265.8,208l-2.6,2.3 M351.5,99.7l-1.8,1.7 M347,103.8l-4,4l-3.6,4.2
	 M337.2,114.9l-3.4,4.3l-7.7,9l-2.3,3.2l-5.7,9.7l-1,1.4 M315,145.2l-3.1,4.1l-3,4.9 M307,157.7l-5.1,9.1l-3.2,5.1 M292,182
	l-0.3,0.4 M355.9,100.8l-9.8,9.9l-7.1,8.6l-8,8.9l-2.6,3.1l-2.3,3.3l-2.9,5 M321.4,142.9l-2.9,4.4l-4.1,5.7l-2,3.3l-5.9,11.1
	l-2.1,3.4l-3.3,4.9 M278.1,206l-4.3,4.3 M271.3,212.4l-2.6,2 M359.9,102l-10.8,11.8l-7.3,8.6l-8.2,9l-2.6,3.2l-2.3,3.3l-3.7,6.8
	l-2.8,4.6 M320.1,152.4L317,157l-2,3.4l-3.9,7.4l-3.1,5.1 M305.7,176.1l-5.3,7.2 M284.3,204.2L284.3,204.2 M280.4,208.4l-2,2
	 M273.9,214.4l-2.5,1.8 M268.8,217.9l-1.3,0.9 M363.8,103.1l-4.3,5.4l-9.7,11.2l-10.8,11.9l-2.7,3.2l-2.5,3.3l-2.1,3.5l-3.7,7
	l-2,3.3l-6.6,9.3l-3.1,5.2 M312.4,173.3l-4.3,6.1 M290,202.8l-1.6,1.8 M286.4,206.8l-3.8,4 M278.5,214.5l-2.3,1.7 M367.7,104.4
	l-3,4.3l-4.3,5.6l-4.9,5.8l-10.6,11.8l-2.7,3.2l-2.6,3.3l-2.3,3.5l-5.9,10.6l-2.2,3.3l-5.8,7.7 M319,170.1l-3.2,5l-3.2,4.4
	 M310.5,182.3l-1.7,2.1 M296.9,200.2l-4.1,4.6 M290.7,207.1l-2,2.1 M286.7,211.2l-1.9,1.9 M282.8,214.8l-2.1,1.7 M371.5,105.9
	l-3.6,5.6l-4.3,5.8l-2.4,2.9l-10.6,11.9l-5.3,6.4l-2.5,3.5l-2.2,3.6l-4,7.1l-2.1,3.4l-2.4,3.2l-7.2,9.1l-5.6,8.1 M317.1,179.5
	l-4.1,5.3 M299.8,202.3l-4.5,4.9 M375.5,107.6l-4.2,6.8l-2.1,2.9l-2.4,3l-10.7,12l-5.2,6.4l-5,7l-3.3,5.4 M338.4,157.9l-2.3,3.2
	 M333.7,164.1l-2.5,2.9 M328.7,170l-2.4,3.1 M324,176.3l-4.6,6 M310.1,194.9l-3.2,4.3 M297.8,209.4l-2.2,2.2 M285.3,220l-1.2,0.7
	 M377,113.4l-2.5,3.9l-2.2,3l-10.7,12l-5.1,6.5l-5.1,7l-9.1,14l-2.3,3.1l-18.3,22.1 M316.8,191.6l-1.2,1.8 M311.5,199l-2.1,2.7
	 M307.3,204.4l-4.5,4.9 M300.5,211.5l-4.4,4 M377,120.9l-2,2.4l-8.1,8.9l-2.6,3.2l-6.1,8.6 M355.7,147.7l-8.3,12.4l-2.3,3.2
	l-3.5,4.5 M339.2,170.6l-13,14.9 M324.4,187.7l-2.4,3.1 M320,193.6l-5.9,8.1 M310,206.7l-3.2,3.5l-3.3,3.2 M377,126.9l-4.9,5.3
	l-2.6,3.1l-2.4,3.3l-7,10.9l-7.4,10.7l-4.9,6.6l-6,7.4 M339.5,176.9l-9.2,9.9l-3.6,4.2 M324.5,193.8l-2,2.7 M320.6,199.1l-3.9,5.1
	 M314.7,206.6l-2,2.3 M299.6,220.4l-1.6,1 M377,132.7l-2.2,2.6l-2.3,3.2l-6.4,10.9l-2.4,3.7l-3.7,5.3 M354.8,165.3l-8.8,10.9
	l-6.2,6.8 M337.2,185.7l-5.2,5.6 M327.4,196.7l-3.9,5.1 M311.4,215.1l-2.2,1.9 M377,139.9l-1.4,2.2l-3.9,7.4l-3.3,5.5 M366,158.5
	l-6.5,8.6l-9.1,11.1 M347.9,180.9l-5.1,5.2 M337.5,191.6l-3.8,4.1l-8.1,9.9l-3,3.4 M318.4,213.1l-2.1,1.9 M377,150l-1.7,3.3
	l-2.1,3.6l-2.4,3.5l-5.2,6.8l-5.4,6.7L355,180l-8.9,9.2 M340.8,194.7l-2.5,2.7 M325.8,211.1l-2.1,2 M321.5,215.1l-4.4,3.5
	 M314.9,220.1l-2.2,1.4 M377,159.7l-5.4,7.5l-6.6,8.4 M362.4,178.7l-3.9,4.4l-9.1,9.2 M346.7,195.1l-5,5.3 M333.2,209.2l-2.1,2
	 M329,213.2l-2.2,1.9 M317.8,221.5l-1.4,0.8 M377,167.9l-7,9.4l-2.6,3.2l-5.2,5.8l-6.6,6.6 M352.8,195.5l-8.7,9l-5.4,5.2
	 M336.5,211.6l-2.1,1.9 M332.2,215.3l-4.6,3.4 M377,175.9l-3.5,4.8l-2.5,3.1l-5.2,5.7l-4,4 M358.9,196.1l-7.8,8 M348.7,206.4
	l-2.3,2.2 M342,212.4l-4.4,3.3 M377,183.8l-5.2,6l-17.1,17.3 M347.5,213.4l-2.3,1.6 M373.7,194.4l-10.6,10.8 M360.6,207.8l-2.5,2.4
	 M377,197.5l-9.2,9.6l-6.4,6 M377,204.1l-7.1,7.2 M237.4,87.4L237.4,87.4 M242.8,86.8l2.8-23.7l3.2-3.5l1.9-1.4l1.7-1.7l2.1-1.2
	l1.8-1.6l1.6-1.7l2.1-1.2l1.6-1.8l2.3-4.5l2.5-0.9l2.3-1l2-1.3l2.2-1.1l2.5-0.7l2.3-0.9l2.1-1.1l2.7-0.6l1.4-1.5l1.5-1.1L288,34
	l2-0.8l2.7-0.2l2.9,0.1l2.3-0.5l2.6-0.2l1.9-0.9l2.2-0.6l2.8,0l1.9-0.9l2,0l5.7,4.6l4.5,3.3l2.9,3l3.6,0.3l4.5,3.5l2.6-0.5l2.6,0.1
	l2.6,2.1l1.1,1.6l0.3,1.8l1.4,2l2.2,1.9l1.1,1.8l0.6,2.5l-0.1,1.8l0.7,5.5l0.1,2.8l-0.4,2.3l0.2,2.5l1.6,5.3l-3.5,20.1 M341.5,97.7
	L341.5,97.7 M241.4,87l1.5-1.7l0.9-2.1l0.3-2.1l1.2-2.4l1.1-4.1 M245.4,86.6l1.2-1.3l2.5-6.7l0.5-2.2l0.7-2.1l0.1-1.6l1.2-7l0.1-2.9
	l0.6-1.9 M249.3,86.4l1.3-1.2l1.6-4.5l0.9-1.9l2-7.4l0.2-2.2 M253.3,86.3l1.4-1.5l1.1-2l0.8-1.9l1.9-9.1l0.8-2.4l1.9-4.4
	 M257.3,86.5l1.4-1.4l2.9-6.1l0.6-2.3l1-2.2l1.3-4l-0.4-1.7l1.6-2l1.7-1.8l0.8-4.4l-0.4-2.3 M261.2,86.7l1.4-1.3l1.2-1.9l1-2.2
	l1.4-2.1l0.5-2.2l1.7-4.4l0.1-1.7l0.8-2l0.2-2.5l0.7-2.4l0.9-1.5 M265.2,86.9l1.4-1.4l1.4-2l2.2-4.1l1.3-4.7l1.6-4.1l0.9-4.8
	l0.1-1.8l0.6-2.6 M269.2,87l1.6-1.6l1.1-2.1l1.8-4.7l2.3-3.8l0.8-2.2l0.3-2l-0.3-2.6l0.4-2.1l0.9-1.3l0.9-2.6l1.2-2.1l0.6-2.3
	l-0.1-2.9l0.7-3l-0.1-2.5l0.7-2l0.6-2.3l0.9-2.2l0.5-2.3 M273.2,87.2l1.5-1.8l1.1-2.2l1.6-4.2l0.9-3.9l1.1-2.3l0.1-2.1l1.5-2.4
	l0.8-2.3L286,61l-0.5-2.3l0-2.6l1.1-4.5l2.8-5.3l0.7-1.8 M277.1,87.6l1.6-1.9l2-3.9l0.7-2.2l0.9-2.2l2.1-3.7l1.3-2.3l1.4-1.3l1-1.9
	L289,66l0.3-2.2l0.8-2l0.4-2.1l0.9-2.6l1.2-4.3l4.7-8.2l0.5-1.6 M281,88.2l1.6-1.7l1.1-2.1l1.5-1.4l2.8-4.1l0.8-2l1-2l3-3.9l1.7-4.5
	l0-2.2l1.4-1.4l0.8-2.3l1-1.8l0.2-1.8l1.6-5.3l3.9-4.1l0.7-2.4l1.2-2.1l1.6-1.8l-0.6-2.2 M284.9,89.1l1.6-1.4l3-3.5l1.4-1.8l1.2-2.2
	l2.7-3.8l1.2-1.8l0.8-2.6l1.6-2.1l1-1.9l1.9-1.9l0.8-1.7l1.5-4.5l3-6.2l1.8-1.7l1.3-2.9l3.5-4.2 M288.8,90.2l1.8-1.2l1.7-1.8
	l1.4-1.7l3.8-5.5L300,77l1.1-2.5l1.9-3l3.6-4.2l1.3-1.3l1.2-4.5l1.9-2.9l1.5-0.7l0.1-1.4 M292.5,91.4l2.4-1.1l1.5-1.6l1.3-1.9l1-1.9
	l1.4-1.7l2.2-4.1l2.7-3.5l3.1-4.4l2.1-2.3l1.1-3.9l4.2-4.8l0.8-1.6l1.3-3.8l1.2-5 M296.4,92.4l2.3-1.4l1.4-1.9l1-2.2l1.1-1.6
	l0.7-2.1l1-2.2l1.9-1.6l0.7-1.6l2.6-4.6l1.5-2l0.8-1.4l1.2-1.4l1.9-2.8 M300.2,93.4l2.1-1.6l1.3-2.1l1-1.8l1.7-4l1.1-2.1l0.8-2.2
	l1.4-1.9l2.3-4.4l1.9-3l1.1-2.6l3.5-3.5l3.2-4.4l0.7-2.5l-0.2-2.5l-0.6-1.8l1.2-1.9l1.7-1.8l2-1.1l1.2-1.5 M304.2,94l1.9-1.6
	l2.7-4.2l0.9-1.8l0.2-2.2l0.5-1.9l1.6-2.4l1-2.3l2.4-4.1l2.6-6.2l1-1.4 M308.1,94.6l2.1-1.6l2.2-4l0.7-2.5l0.7-1.5l0.5-2.2l2.8-3.9
	l1.7-1.7l1.2-1.9l0.2-2.1l-0.1-3.2l0.2-2.3l2.1-1.3l2.1-2.2l1-1.5l0.3-1.9 M312,95.1l2.2-1.5l2.5-4l1.3-5.2l1.5-2.4l3.5-3.6l0.9-2.3
	l0.3-3.1l-0.1-2l2.8-4.3l0.1-2.3l0.7-1.7l1.2-1.6l0.3-2.5l0.9-1.8l1.2-2 M316,95.5l2-1.1l2.8-3.5l1.1-4.2l0.2-2.4l1.4-1.9l0.8-2.5
	l1.5-2.2l0.6-2.9l0.7-2.1l3.8-4l0.6-1.8l-0.1-1.7l1.1-4.4l2.9-4.2l0.7-2.9l2.3-5.8 M320,95.9l2.1-1.3l1.5-1.7l2.4-4.2l0.9-2.3
	l0.6-2.4l1.2-2.1l0.5-2.5l0-2.5l0.9-2l1.6-1.6l2.6-3.3l0.9-1.6l0.7-1.9l0.1-1.9l0.7-2.1l1.7-2.8l2.1-5.9 M323.9,96.4l2-1.4l1.6-2
	l3.4-6.1l1-2.4l0.4-2l5.4-9l0.4-1.4 M327.9,96.8l2-1.5l1.5-1.9l2.2-3.9l0.5-2.3l0.6-1.6l1.3-1.9l0.7-2.1l1.2-2.2l1.4-3l1.2-1.9
	l0.6-0.7l0.4-1l2-1.9l0-2.9l1.3-3.7 M331.8,97l1.9-1.2l1.2-2.2l1.3-1.7l0.6-2.2l0.2-2.8l1.3-1.3l1.3-1.8l1.1-2.6l1.3-2.5
	 M335.8,97.3l2.1-1l1.3-1.8l2.6-4.6l0.4-1.4l1-2.2l2.8-3.9 M214.4,186.7l6-0.7l4.6-0.8l2.5-0.2l5.3-0.1l4.7-0.4l2.4,0l2.4-0.4
	l2.3-0.9l6.9-0.9l2.3-0.2l2.2,0.1l5.5-0.5l7.6-0.1l1.9,0.4l2.1,0.2l5.4,0l2.3-0.2l5.6,0.3l2.3-0.3l2.3,0l4.6,1.1l2.6,0.3l2.2-0.4
	l2.1,0.2l2.1,1l2-0.3l5,0.7l2.4,0l2.3-0.4l11.6,1.3l-14.3,7.5l-2.3,0.9l-2,1.2l-4.1,2.1l-2.4,0.7l-4.3,1.9l-2.6,0.3l-2.3,0.7l-4,1.9
	l-2.2,0.8l-2.6,0.4l-7.8,0.3l-2.2,0.4l-4.8,0.5l-7.3,0.2l-2.1,0.3l-4.7,0.3l-9.8-0.4l-2.1,0.3l-2.3,0l-2.6-0.4l-2.1-0.1l-2.4-0.3
	l-2.9-0.8l-2.3-0.2l-1.9,0.1l-11.5-3.3l-1.5-0.7 M215.4,188.3l5-0.2l4.7-0.4l7.6,0.1l2.4-0.3l2.5-0.1l2.3,0.4l2.2-0.2l2.3-0.6
	l2.6-0.3l6.9-0.3l10.9,0.5l4.3,0.5l4.6,0.1l2.7,0.5l4.7,0.4l2.2,0.5l2.9,0.1 M214.5,190l3.4-0.1l9.8,0.6l7.4,0.2l2.7,0l2.5-0.3
	l4.9,0.2l2.3-0.2l2.4,0.2l2.3,0.4l2.3,0.1l2.3,0.4l5.4,0.3l5.1,0.7l2,0l4.6,0.5l2.6,0.8l2.3,0.9l2.4,0.6l5,1.1l2.6,0.2 M214.6,191.5
	l3.6,0.1l7.1,1.2l7.4,0.5l2.7,0.4l2.4-0.1l4.6,0.4l2.6,0.4l5,0.4l1.8,0.6l2.5,0.2l2.5-0.1l2.7,0.9l2.5,0.6l4.7,1l2.1,0.3l4.9,1.3
	l2.3,0.8 M214.6,193.1l3.5,0.4l7.3,1.7l2.4,0.4l7.4,1.1l2.1,0l4.8,0.8l4.7,1.8l10.2,1.7 M215.7,194.8l5.1,1l2.3,0.9l2.4,0.5l9,2.6
	 M214.7,196.4l6.3,1.6l6.7,2.4l2.2,0.9l1.9,1.7 M214.7,198.2l4.4,1.4l3.8,2.1 M244.4,222.9l2.8,2.6l5.3,4.2l2.5,1.6l1.3,0.5l1.4,2
	l2.4,1.5l2.8,1.3l1.1,2.3l6,3.3l1.4,12.5l-2.3,3.9l-1,2.1l-0.6,5.5l-0.6,2.5l-9.6,11.2l-1.5-2.2l-1.4-1l-1.2-3.9l-0.6-4.1l-0.8-2.4
	l-1.9-2.5l0.1-3l-1.1-2.6l-0.7-6.1l-1.1-2.3l-0.7-2l-0.3-2l-0.9-1.9l-0.7-2.6l-0.8-2.2l-1.6-5.8l-1.2-2.2l-3.4-8.2 M242.8,222.9
	l4.6,5l2.5,2.2l2,2.3l3.6,3.7l5.1,4.4l1,1.9 M241.2,222.9l5.7,8l2,2.2l1.6,2.2l3.3,3.7l1.5,2l1,2.4l2.6,3.6l0.9,2.7 M239.6,222.9
	l6.2,10.9l1,2.4l1.4,2l2,3.4l1.2,2.7l1.5,5.1l1.4,2.9l1.5,2.1l0.8,1.9l0.8,2.9l1.3,2.4l2.4,1.3l1.2,2.6l1.9,5.7 M341.5,225.4
	l3.6,3.2l2.5,2.9l2.1,3.5l2.6,2.6l7.8,16.3l-0.8,2.3l-1,2l-1.6,1.6l-0.9,2.4l-1.9,1.3l-3.1-0.5l-2,0.5l-2.2,0.1l-2.2-0.1l-7-1.3
	l-2.7-1.1l-2-0.4l-12.2-19.4l-3.4-7.5l-3.2-4.8 M337.7,226.4l3.1,2.9l7.3,9.5l1.7,1.6l0.4,2.6 M333.8,227.4l2.8,2.8l1.9,2.5l1.8,2.7
	l1.8,2l3.5,4.8l1.3,1.6l1.3,2l2.3,2.4 M329.9,228.2l2.6,3l1.4,2.2l3.8,5l1.9,1.9l1.1,2.3l1.7,2.4l2.4,2.1l1.6,1.9l0.9,3.2l1.8,1.8
	l0.8,2.1 M326,228.8l2.5,3l1.5,2.5l1.9,2.4l1.4,2.4l2.1,2.3l1.4,2.2l2.5,5l0.4,2.5 M322,229.1l3.6,6.2l4.9,7.7l1.1,2.1l0.3,2.2
	l1.2,2.2l1.9,0.9l1.2,3.4l0.5,2.5 M318,229.2l3,6.6l2.9,4.1l1.3,2.6 M376.2,107.9l2.6-0.4l4.8-2.1l2-1.1l2-1.9l1.7-1.1l1.7-0.6
	l1.9-0.9l2.6-1.8l3-1.2l3.9-2.2l2.2-0.7l2.1-1.1l2.2-2.6l1.6-1.6l3.8-1.2l1.6-1.7l1.8-1.2l3.6-0.7l2.7-1.4l-4.6,11.6l-2,3.8
	l-0.4,2.5l-0.9,2l-0.4,5.1l-1,1.6l-0.7,2l-0.4,2.3l-1.5,4.9l-1.2,2l-1.6,1.6l-1.1,2l-0.5,2.6l-2.1,4.1l-0.1,3.1l-2.4,4l-1.6,4.5
	l-0.9,2.1l-1.1,1.9l-0.6,2.4l-0.3,2.7l-1.4,4.2l-0.7,4.8l-2,6.3l1.7,7.2l1.2,3.2l-0.8,1.7l-0.3,2.2l-0.5,2l1.6,5.6l0.6,2.7l0.3,2.5
	l-0.6,5.6l2.1,6.2l0.1,2.5l-0.3,2.1l0.3,2.4l1,2.5l1.7,6.1l1.9,5l1.3,8.1l-6.9-3.1l-2.2-0.8l-3-3.1l-5.5-3l-2.1-2.3l-1.7-1.6
	l-4.8-2.3l-3.3-2.6 M380.8,111.8l5.1-1.8l2-1.6l2.2-1.3l2.6-1l1.5-1.2l2.5-1l2.4-0.2 M376.2,118.7l2.8-0.2l2.2-0.8l4.4-2l3.3-0.7
	l4.5-2l2-0.2l1.2-0.6l2.8-1 M384.7,122.5l6.6-2l3-0.2l3.8-1.7l2-0.2l2.1-0.7l2.7-1.1l3.6-0.8 M385.5,129.7l2.7-1l2.3-1.2l1.7-0.5
	l2-0.9l3.2-0.9l3.4-0.5l2.5,0.4l2.6-1l2.9-0.7 M376.2,134.8l3.4,0.1l5.5-0.5l3.3,0l2.7-0.3l2.8,0.3l4.7-0.1 M382.1,140.2l5.6-1.3
	l3.2-0.1l2.8-1l2.9-0.4 M382.7,147.1l2.8,0.3l2.3-0.8l2.6-0.5l1.9,0.9l3.2-0.5 M379.9,151.8l5.8,0l2.3,0.4l2.6,0.8l5.4-1.1
	 M376.2,156.3l4,0.9l5.9,1 M387.2,164.5l2.7,0.3l2,0.7l1.5,1.5 M383.6,169.5l2.8,1.2 M383.4,174.7l3.4-0.5l2.6,1.2l3.2,0.5l2.7,1
	 M382.2,179.9l2.1,1l3.5,0.2l4.1,0.6 M384.4,187l6.5,1.1 M382.1,191.4l8.4,3 M385.5,197.9l2.3,1.4l5.1,3.8l2.9,1.4l1.8,0.6
	 M379.6,200.9l5,2.4l3,1.9l2.5,2l2.6,1.3 M379.7,206.8l2.9,1.6l2.7,2.4l4.5,1.3l2.2,1.4l2.2,0.8l4.7,2.9l2.5,2.1 M376.2,210l6.2,4.2
	l3,0.8l4.6,2.6 M115.6,154.4l1.9-3.2l4.6-6.4l3.1-3.7l5.4-3.7l5.5-5l7.1-5.1l7.3-4.8l6.5-5.3l6.4-4.1l6.2-3.7l12.4-6.6l11.2-5.6
	l4.4-1.8l3.4-1l1.8-0.3l3.1,6.7l1.6,6.8l3.6,13.5l1.2,6.8l0.6,6.8l0,13.7l1.1,20.5l-0.1,6.9l0.4,6.8l0.4,13.7l0,6.9l-0.2,6.9
	l-0.8,6.9l-3.9,7l-12.8-0.6l-9.4-1.4l-8.6-2.1l-7.7-2.6l-6.9-3l-6.8-4l-6.7-4.5l-6-5L130,185.4 M126.9,181.5l-3.5-5.2l-2.5-5.6
	 M189,136.6l-0.2,5.9l-0.7,11.1l-0.8,5l-1,4.6l-0.1,4.3l0.1,3.8l0.9,3.7l2.5,8.1l1,5.1l-1.4,5.9l-15,0.6l-6.2-0.2l-6-0.8l-5.7-1.4
	l-5.8-2.7l-5.8-3.7 M128.4,184.3l-4.3-8.1l-6.3-10.5l-4.4-8.7l0.6-1.8l1.8-0.9l1.8,0.8l3.7,9.2l3.4,7.2l2.4,5.8l1.3,3.7l2.1,5.2
	 M129.8,186.7l-3.1-2.4l-7.7-6.6l-9.4-7.2l-4.5-3.7l-8.8-7.8l-0.3-1.9l1.3-1.4l1.9-0.1l2.8,2.7l2.7,3l7,6.8l10.2,9.5l5.6,5.8
	l2.8,2.6 M157.9,151.5l-3.1-4.4l-1.5-5.2l0.2-5.4l2-5l3.5-4.1l4.6-2.8l5.3-1.1l5.3,0.7l4.9,2.4l3.8,3.8l2.4,4.9l0.7,5.4l-1.1,5.3
	l-2.8,4.6l-4.1,3.5l-5,2l-5.4,0.2l-5.2-1.5L157.9,151.5 M180.2,132.3l1.9,3.9l0.5,4.3l-0.9,4.2l-2.2,3.7l-3.3,2.8l-4,1.6l-4.3,0.2
	l-4.1-1.2l-3.5-2.5 M164.3,143.9l-1.2-1.8l-0.6-2.1l0.1-2.2l0.8-2l1.4-1.7l1.9-1.1l2.1-0.4l2.1,0.3l1.9,0.9l1.5,1.5l0.9,1.9l0.3,2.1
	l-0.4,2.1l-1.1,1.9l-1.6,1.4l-2,0.8l-2.2,0.1l-2.1-0.6L164.3,143.9 M163.7,142.8l2.4,2.4 M164,140.9l4.8,4.8 M165.2,140l5.5,5.5
	 M166.6,139.2l5.7,5.7 M167.9,138.4l5.5,5.5 M168.3,136.7l6.1,6.1 M169.8,135.9l5.4,5.4 M171.5,135.6l3.9,3.9 M172.8,134.7l2.1,2.1
	 M122.1,173.5l1,1 M116.2,153.2l4.2,4.2 M118.1,150.4l3.1,3.1 M120.1,147.6l2.8,2.8 M122.1,144.8l2.7,2.7 M124.2,142.2l4.2,4.2
	 M126.8,140l4.2,4.2 M129.6,138.1l3.9,3.9 M132.2,135.9l3.2,3.2 M134.7,133.6l4.3,4.3 M137.4,131.5l4.2,4.2 M140.1,129.5l2.4,2.4
	 M142.9,127.5l3.5,3.5 M145.8,125.6l4.4,4.4 M148.7,123.7l2.7,2.7 M151.5,121.8l3.8,3.8 M154.1,119.6l4.2,4.2 M156.7,117.4l2.5,2.6
	 M159.6,115.5l3.2,3.2 M162.5,113.7l3.8,3.8 M165.5,111.9l3.5,3.5 M168.5,110.1l3,3 M171.5,108.4l4.3,4.3 M174.6,106.7l2.8,2.8
	 M177.8,105.1l2.5,2.5 M180.9,103.4l3.7,3.7 M184,101.8l3.6,3.6 M187.2,100.2l3.8,3.8 M190.4,98.6l2.8,2.8 M193.6,97.1l3.5,3.5
	 M197,95.7l3.2,3.2 M200.6,94.5l4.3,4.3 M209.5,189.4l-0.6-1.6l0-0.8l0.3-1.9l0.9-2.6l0.5-0.8l0.6-0.5l3-2.4 M151.5,176.4l1.9-1.5
	l1.7-0.4l1.3-0.1l1.2,0.1l0.4,0.3l0.3,1.5 M131.6,173.2l0-0.8l0.2-0.9l1.6-2.2l0.5-1.3l0.4-0.3 M176.5,189.4l-0.2,2.2l0.2,0.6
	l1.7,2.9l0.9,0.8 M212.9,148.4l-0.3-1l-0.3-0.3l-0.4-0.1l-4.8,0.8l-2.5,0.1 M182.8,172.2l-0.5-1.3l-0.1-1.1l0.8-2.3l0.8-1.4l0.1-0.5
	 M199,167l1.6-0.6l0.7,0l0.6,0.5l0.5,0.9 M210.1,149.6l-0.4-0.6l-0.5-0.5l-0.7-0.3l-2.4-0.3l-1.1,0.2l-1.2-0.2l-1.8-0.7l-0.7-0.8
	 M191.2,148.5l-0.7-0.3l-2.8-0.3l-0.8-0.4l-1-1.2l-0.1-0.5l0.2-0.7 M132.4,168.5l0.6-1l0.7-0.5l1.2,0.1l1.7,0.7 M171.9,156.5
	l-0.9,1.8l-1.4,0.7l-4.5-0.6l-2-0.4 M125,155.6l-1.4-1.5l-4.4-2.8l-1.1-0.9 M197.8,125.1l-0.4-0.8l-0.9-0.1l-2.7,1l-1.8,0.3
	 M185.8,211.1l0.9-2l1.5-1.8l0.4-1.4l-0.3-1.5l-1.6-1.8l-0.3-0.9 M201.6,198.9l0.1-0.6l-0.1-1l-3.1-3.5l-0.3-0.7l-0.4-1.7l-0.7-1.3
	 M208.7,202.4l-3,1.9l-0.5,0 M143.5,144.5l1.9-1.4l0.4-0.7l-0.1-0.6l-0.4-0.6l-1-0.5 M163.9,121.7l-0.5-1l-0.1-0.8l1.6-2.5
	 M194.8,188.4l-0.1-0.8l-0.5-0.6l-0.9-0.6l-0.9-0.4l-0.8-0.7 M161.7,202.3l-0.5,0.7l-0.4,1.1l0.3,0.9l0.8,0.6l1.3,0.6l1.8,0.3
	l1.2-0.2 M186.7,183.8l-2-3.2L184,180l-2-0.8l-1.4-0.4l-0.7,0 M188.1,102l-0.5-0.7l-0.4-1.1 M166.5,192.1l1.2,1.8l1.4,0.8
	 M131.1,179.9l0.8-2.8l0.1-1.1l-0.1-0.8 M154.1,198.1l0-0.3l1-1.4l0.6-1.1 M190.1,110.9l-4.3,4.1l-1.4,1l-1.2,0.6 M179.2,109.2
	l1.2-0.5l0.7,0l0.5,0.2l1.1,2l0.3,1.1 M192.3,179.4l2.7-5.4l0.8-0.7l0.8-0.3l0.8-0.8 M179.4,197.2l0.8-1.1l0.3-0.8l0.1-0.7l-0.3-0.5
	l-0.6-0.3l-0.3,0l-0.3,0.4 M191.1,213.9l-0.8-0.4l-0.3-0.3l-0.2-0.4l0-0.9l0.2-0.5l1.5-2l1.6-2.9 M210.5,133.1l-0.7,0.8l-1.3,0.8
	l-0.8,1.4 M176,165.9l0.1,0.4l-0.5,0.8l-1.5,1.2l-1,1.1l-1,0.7l-0.8,0.9 M180.6,194.7l-0.2-0.5l-0.6-0.3l-0.3,0l-0.4,0.4l0.1,0.3
	l0.3-0.1 M166.7,111.2l2.5,1.7 M192.7,130l-0.3-0.4l-2.5-2.1l-0.6,0l-0.6,0.9 M206.9,206.4l-1.8,0l-0.5-0.2l-0.2-0.7l0.2-1.3
	l-0.1-0.5 M177.1,194.5l1.3,2.2l0.5,0.5l0.3,0l0.5-0.4l0.9-1.7 M182.2,118.1h-0.9l-1.6,0.5l-0.5-0.1 M130.8,166.1l1.2-0.5l1.4,0
	l1.6,0.7l1.1,0.9 M135.4,190.9l-0.4-0.2 M131.5,156.1l-1,0.2l-0.7-0.3l-0.4-0.5l-0.5-3.9 M173,110.7l1,2.3l0.8,3.5 M131.4,165.6
	l1-0.2l1.5,0.2l1.2,0.6l1,1l0.8,0.5 M147.4,146l-0.4-0.9l0.1-1.8l-0.1-1.1 M159.2,195.3l-0.6,0.4l-0.6,0.2l-0.5-0.2l-0.4-0.5
	 M191,206.3l0.9-0.8l2.1-0.8l1-1.2 M139.6,166l-0.7,0.7l-0.3,1.2l-0.5,0.5 M146.9,188.3l0,0.3l0.3,0.6 M154.2,154.4l-3.6-1L148,153
	l-2.9-0.7 M199.7,211.1l0.3-1.7l0.8-1l0.7-1.7l0.7-3.3 M210.2,219.6l-0.9,0.1l-1.3-0.1l-1.9-0.5l-1.1-0.5l-1.8-1.3l-1.3-1.6
	 M153.9,150.8l-4.3-0.4l-0.8,0.1l-2.4,0.8l-4.4,0.3 M166.1,188.5l1.1,0.1l0.9-0.4l1.2-0.8l1.3-1.2l1.4-0.8 M106,167.6l6.1,7l5,5.1
	l5.1,4.8l5.4,4.5l5.7,4.1l11.6,7.8 M134.2,191.2l-0.5,0.7 M206.3,102l2,2 M204.4,93.8l7.3,7.3 M209.8,92.9l5.6,5.6 M214.9,91.6
	l8.1,8.1 M220.1,90.4l7,7 M225.4,89.3l7.9,7.9 M230.8,88.3l5.9,5.9 M236.3,87.6l4.9,4.9 M242,86.9l5.4,5.4 M248,86.4l5.7,5.7
	 M254.3,86.4l7.6,7.6 M260.9,86.7l5.1,5.1 M267.6,87l9,9 M274.3,87.4l5.4,5.3 M281.7,88.4l8.6,8.6 M290.4,90.7l6.2,6.2 M299.2,93.2
	l5.6,5.6 M306.8,94.4l7.2,7.2 M314,95.3l4.9,4.9 M321.2,96.1l6.1,6.1 M328.3,96.8l6.4,6.4 M335.1,97.2l7,7 M342,97.8l5.4,5.4
	 M349.9,99.3l6.9,6.9 M358.5,101.6l6.6,6.6 M367.7,104.4l6.9,6.9 M213.2,222.1l1.1,2.2 M213.5,217.2l3.6,7.2 M214.1,212.8l5.7,11.4
	 M214.6,208.3l7.9,15.8 M215.4,204.2l9.8,19.6 M216.6,201l11.2,22.5 M219.8,201.9l9.3,18.7 M223.1,202.9l6.2,12.4 M214.7,180.6
	l2.9,5.8 M226.3,203.8l3.3,6.6 M214.7,175l5.5,11 M229.3,204.2l1.1,2.1 M214.7,169.5l8,16.1 M214.8,164l10.6,21.2 M215,158.8
	l13.1,26.2 M243.4,215.7l3.7,7.3 M215.2,153.7l14.2,28.4 M243.6,210.6l6.3,12.7 M215.4,148.6l13.5,27 M244.1,206l8.8,17.5
	 M215,142.2l13.5,27 M246.8,205.8l9.1,18.2 M216.1,138.8l12.1,24.2 M249.6,205.9l9.2,18.5 M216.5,134l12.1,24.2 M252.5,206l5.2,10.5
	 M217.6,130.8l11.4,22.8 M243.3,182l0.8,1.6 M255.3,206.1l0.8,1.5 M218.1,126.1l10.7,21.3 M242.3,174.5l4.3,8.5 M218.6,121.5
	l10,19.9 M242,168.4l7.1,14.3 M218.3,115.3l10.7,21.3 M241.8,162.3l10.1,20.1 M218,109.2l11.4,22.8 M242.2,157.6l12.3,24.7
	 M272.8,218.8l4.2,8.4 M218.4,104.3l10.7,21.3 M241.8,151.3l14.9,29.9 M271.7,211l8.2,16.5 M218,98.1l11.4,22.8 M242.2,146.4
	l14.2,28.4 M272,206.2l10.8,21.6 M217.3,91.1l11.7,23.5 M241.8,140.1l14.9,29.9 M274.2,204.9l11.5,23 M219.8,90.5l9.6,19.2
	 M242.2,135.3l14.2,28.4 M276.8,204.5l11.8,23.6 M222.3,89.9l8.2,16.4 M241.8,129l13.5,27 M279.5,204.4l10,20 M224.8,89.4l6,12.1
	 M241.5,122.8l13.5,27 M270,179.7l1.2,2.4 M282.2,204.2l6.3,12.5 M227.4,88.9l3.2,6.4 M241.2,116.7l13.5,27 M270.4,175l3.6,7.3
	 M285,204.2l3.9,7.8 M229.9,88.5l1.1,2.1 M241.6,111.9l12.8,25.6 M270.1,168.9l6.7,13.4 M287.5,203.7l1.8,3.5 M242.1,107.3
	l12.1,24.2 M269.8,162.8l9.8,19.5 M242.6,102.7l11.4,22.8 M269.6,156.7l12.8,25.5 M243.7,99.5l10,19.9 M270.1,152.1l15.1,30.3
	 M307,226.1l1.3,2.7 M244.2,94.9l10,19.9 M270.6,147.5l15.6,31.3 M306.8,220.1l4.4,8.8 M244.8,90.3l10,19.9 M271.1,143l15.6,31.3
	 M306.6,214.1l7.5,15 M245.4,86.1l10,19.9 M271,137.3l16.4,32.7 M307.3,209.8l9.7,19.3 M245.9,81.6l10.7,21.3 M270.1,129.9
	l17.8,35.6 M307.1,203.9l12.6,25.3 M246.5,77.1l10.7,21.3 M269.9,124l17.1,34.1 M306.9,198l15.5,31.1 M247,72.6l10.7,21.3
	 M269.8,118.1l17.8,35.6 M308.6,195.7l15.2,30.5 M247.1,67.2l12.1,24.2 M269.9,112.7l17.8,35.6 M310.8,194.5l13.9,27.8 M247.9,63.1
	L260.3,88 M270.2,108l17.8,35.6 M306.5,180.5l1.9,3.9 M313,193.5l12,24 M249.8,61.4l11,22 M270.7,103.4l17.1,34.1 M305.6,173.1
	l5.8,11.7 M315.3,192.4l9.5,19.1 M251.7,59.7l9.6,19.2 M271.3,98.8l17.1,34.1 M306.1,168.6l8.1,16.2 M317.5,191.3l7.8,15.7
	 M253.7,58.2l8.2,16.4 M272.6,95.9l14.9,29.9 M306,162.8l10.9,21.7 M319.7,190.1l6.2,12.5 M337.4,225.5l0.4,0.8 M255.8,56.7
	l6.1,12.1 M273.2,91.6l14.2,28.5 M306.6,158.4l13.2,26.4 M321.9,189l3.9,7.9 M338.6,222.4l1.6,3.3 M257.6,54.8l3.9,7.8 M273.6,86.9
	l14.2,28.5 M306.3,152.3l16.4,32.9 M324.1,187.8l0.7,1.5 M339.1,217.7l3.7,7.4 M259.7,53.4l0.4,0.7 M274.3,82.6l14.2,28.5
	 M305.6,145.2l19.2,38.4 M340.4,214.9l4.8,9.6 M274.7,77.9l14.2,28.5 M305.3,139.1l19.2,38.4 M340.9,210.2l6.8,13.7 M274.8,72.5
	l14.2,28.4 M305.4,133.6l19.2,38.4 M341.6,206.2l8.6,17.2 M274.3,65.9l14.9,29.9 M306.3,129.9l18.5,37 M341.1,199.6l11.3,22.6
	 M273.1,57.9l15.6,31.3 M306.5,124.8l17.8,35.6 M341.4,194.5l11.4,22.8 M271.7,49.7l16.4,32.7 M307.3,120.8l17.1,34.1 M341.5,189.1
	l11.4,22.8 M271.4,43.4l16.7,33.4 M306.6,113.8l17.1,34.1 M340,180.7l12.1,24.2 M273.7,42.4l14.6,29.2 M306.7,108.6l15.6,31.3
	 M340.2,175.4l12.1,24.2 M276,41.6l11,22 M307.7,104.9l14.9,29.9 M340.4,170.4l12.1,24.2 M278.3,40.6l8.2,16.4 M306.4,96.8
	l17.1,34.1 M340.6,165.1l12.1,24.2 M365.5,214.9l2.1,4.2 M280.6,39.6l5.3,10.7 M303.7,85.9l19.9,39.8 M340.7,159.8l12.1,24.2
	 M364.9,208.2l5,10 M283,38.8l3.2,6.4 M302.5,77.9l20.6,41.2 M339.5,151.9l13.5,27 M365.1,203.1l7.1,14.1 M284.9,37l1.1,2.1
	 M301.6,70.4l22,44.1 M338.6,144.4l14.9,29.9 M364.9,197.1l9.5,19.1 M300.5,62.8l23.5,46.9 M338.2,138.1l16.4,32.7 M365.3,192.2
	l11.3,22.7 M299.4,54.9l23.5,46.9 M337.1,130.2l17.8,35.6 M364.8,185.7l12.8,25.6 M299.2,48.9L321.2,93 M336.9,124.3l17.8,35.6
	 M364.6,179.8l12.8,25.6 M299.1,43.3l18.5,37 M336.8,118.7l17.1,34.1 M365.3,175.6l12.1,24.2 M298.8,37.1l18.5,37 M337.2,113.9
	l16.4,32.7 M366.4,172.2l10.7,21.3 M300.4,34.7l16,32 M337.1,108l15.6,31.3 M366.2,166.3l10.7,21.3 M302.7,33.7l13.2,26.3
	 M337.2,102.7l14.9,29.9 M366.4,161.1l10.7,21.3 M305.3,33.3l8.9,17.8 M336.9,96.6l13.5,27 M366.8,156.3l10.7,21.3 M307.9,33l6,12.1
	 M334.6,86.3l15.7,31.3 M366.6,150.3l12.1,24.2 M310.4,32.4l3.2,6.4 M330.7,72.9l19.9,39.8 M367,145.5l12.1,24.2 M329.2,64.3
	l16.7,33.5 M346.3,98.6l3.9,7.8 M365.8,137.7l13.5,27 M328.7,57.9l17.9,35.8 M349.4,99.2l0.4,0.7 M364,128.3l15.6,31.3 M328.1,51
	l19.2,38.5 M364.3,123.4l15.6,31.3 M328.9,47.1l18.6,37.3 M363.9,117.1l17.1,34.1 M331.3,46.3l14.6,29.2 M364.3,112.4l17.1,34.1
	 M334.3,46.7l9.6,19.2 M364,106.2l17.1,34.1 M337,46.7l6,12.1 M365.5,103.7l13.2,26.3 M368.9,104.8l8.9,17.8 M372.4,106.3l6.1,12.1
	 M376,107.8l2.5,5 M224.6,291.4l-1.9,6.3 M224.6,291.4l0.5,6.3 M229.4,291.4l-4.3,6.3 M229.4,291.4l-1.9,6.3 M230.6,293.5l0.5,4.2
	 M234.2,293.5l-4,5.4l-0.8,0.6l-1,0.3 M236,293.5l-1.9,6.3 M235.7,294.4l0.8-0.6l0.7-0.3h0.9l0.5,0.3l0.4,0.6l0,0.9l-0.2,0.6
	l-0.6,0.9l-0.8,0.6l-0.7,0.3h-0.9l-0.5-0.3l-0.4-0.6 M242,291.4l0.2,0.3l0.4-0.3l-0.2-0.3L242,291.4 M241.7,293.5l-1.3,4.2
	 M246.8,294.4l-0.1-0.6l-0.8-0.3H245l-1,0.3l-0.5,0.6l0.1,0.6l0.5,0.3l1.4,0.3l0.5,0.3l0,0.9l-0.5,0.6l-1,0.3h-0.9l-0.8-0.3
	l-0.1-0.6 M253.1,291.4l-1.5,5.1l0,0.9l0.5,0.3h0.6 M251.6,293.5h2.1 M259.1,293.5l-1.3,4.2 M258.8,294.4l-0.4-0.6l-0.5-0.3H257
	l-0.7,0.3l-0.8,0.6l-0.6,0.9l-0.2,0.6l0,0.9l0.4,0.6l0.5,0.3h0.9l0.7-0.3l0.8-0.6 M261.5,293.5l-0.9,3l0,0.9l0.5,0.3h0.9l0.7-0.3
	l1.2-0.9 M264.8,293.5l-1.3,4.2 M267.2,293.5l-1.3,4.2 M266.8,294.7l1.2-0.9l0.7-0.3h0.9l0.5,0.3l0,0.9l-0.9,3 M270.1,294.7l1.2-0.9
	l0.7-0.3h0.9l0.5,0.3l0,0.9l-0.9,3 M279.5,293.5l-1.3,4.2 M279.2,294.4l-0.4-0.6l-0.5-0.3h-0.9l-0.7,0.3l-0.8,0.6l-0.6,0.9l-0.2,0.6
	l0,0.9l0.4,0.6l0.5,0.3h0.9l0.7-0.3l0.8-0.6 M282.8,291.4l-1.5,5.1l0,0.9l0.5,0.3h0.6 M281.3,293.5h2.1 M285.5,293.5l-0.9,3l0,0.9
	l0.5,0.3h0.9l0.7-0.3l1.2-0.9 M288.8,293.5l-1.3,4.2 M293.9,294.4l-0.1-0.6l-0.8-0.3h-0.9l-1,0.3l-0.5,0.6l0.1,0.6l0.5,0.3l1.4,0.3
	l0.5,0.3l0,0.9l-0.5,0.6l-1,0.3h-0.9l-0.8-0.3l-0.1-0.6 M295.5,297.1l-0.4,0.3l0.2,0.3l0.4-0.3L295.5,297.1"/>
</svg>
