<?xml version="1.0" encoding="utf-8"?>
<!-- Generator: Adobe Illustrator 28.0.0, SVG Export Plug-In . SVG Version: 6.00 Build 0)  -->
<svg version="1.1" id="レイヤー_1" xmlns="http://www.w3.org/2000/svg" xmlns:xlink="http://www.w3.org/1999/xlink" x="0px"
	 y="0px" viewBox="0 0 520 320" style="enable-background:new 0 0 520 320;" xml:space="preserve">
<style type="text/css">
	.st0{fill:none;stroke:#000000;}
	.st1{fill:none;stroke:#000000;stroke-linecap:round;stroke-linejoin:round;}
</style>
<rect x="10" y="10" class="st0" width="500" height="300"/>
<path class="st1" d="M156.4,122.1l20.4-4.7l12.3-2.4l24.5-5.2l12.3-2.4l12.4-1.8l12.5-1.2l12.5-0.4l12.5,0l12.5,1.4l12.4,1.9l12.5,1
	l12.4,1.4l12.2,2.8l12.1,3.2l12,3.6l24,7.2l29.9,9.4 M415.6,195.6l-15.8,5l-12.1,3.4l-12.1,3.1l-24.4,5.6l-12.3,2.3l-12.4,1.4
	l-12.5,1.1l-37.5,2.5l-12.5,0.7l-12.5-0.1l-25-1.5l-17.9-1.4 M177.2,213.9l-12.7-2.4l-18.8-4.5 M207.2,154.1l3.7-0.9 M230.5,150.5
	l8.4-0.2 M243.1,150.1l2-0.2l3.6-0.9l3.3-1.2l3.6-0.9l2-0.3 M265.8,145.5l9.9-1.8l6.2-0.6 M286.1,142.9l4.5,0 M295.5,143.4l7.5,0.9
	l7.3,0.7 M315.3,145.5l7.7,1.3l4.6,0.5l7.8-0.1l4,0.3l8.4,1.5l3.7,0.4l6.5,0.2l4.9,0.5 M366.3,150.6l8.4,1.6l10.6,2.6l9.9,1.8
	l12,3.1l8.5,1.7 M152.8,197.3l2.5,3.5 M160.5,131.1l-1.1,1.2 M173.5,128.4l-1,1.9l-2.4,3.4l-4.1,4.6 M160.6,144.4l-1,1 M186.8,125.8
	l-3.2,5.6l-1.2,1.7 M177.6,139.9l-2.3,3.5 M202.1,125.2l-1.6,1.3l-1.4,1.5 M196.5,131.2l-2.2,3.6 M192.2,138.5l-4.6,6.9
	 M185.6,149.1l-2,3.7 M226.7,111.3l-2.7,3 M211.1,130.2l-4.1,4.6l-1.2,1.6 M203.3,139.7l-2.1,3.6 M217.6,204l1.7,3.2 M222.9,214.1
	l0.9,1.7 M234,115.6l-1.2,1.6l-1,1.8 M227.4,126.1l-3.9,4.6l-4.6,6.8l-2.8,2.9l-1.6,1.3 M211.6,144.4l-1.4,1.4l-1.2,1.7
	 M206.7,151.1l-2.2,3.8 M223.6,192.7l7.5,13.8 M235.2,214.4l1.1,2.3 M249.2,111l-2,3.8 M242.5,121.6l-1.2,1.7l-0.9,1.9 M238.5,129
	l-0.9,1.9l-2.4,3.2l-8.2,8.8l-4.6,3.9 M219.2,149.4l-2.2,2.1 M226.8,175.6l6.1,11.3 M236.8,194.2l1.7,3.4 M242.1,204.7l1.9,3.6
	 M245.9,211.9l1.6,3.1 M254,119.3l-2.5,3.4 M246.6,129.6l-2,3.8 M242.6,137.1l-1.1,1.8l-2.6,3.1l-1.5,1.3 M234.3,145.9l-6.2,4.7
	 M231.3,158.1l1.6,3.3 M234.4,164.8l1.5,3.2 M239,174.5l3.7,7.1 M244.6,185.2l6,12l3.4,6 M256.4,207.2l3.1,5.7l1.6,3.4 M262.6,119.8
	l-2.7,3.3 M255.2,130.4l-3.1,5.8l-3.8,5 M245.9,144.6l-1.2,1.7l-3.6,4 M246.4,161.4l1.5,3.2 M260.6,190.7l4.5,7.9 M269.1,206.1
	l1.8,3.5 M273.1,213.4l1.1,2 M277.8,115.8l-2.7,3.5 M272.3,122.6l-6.8,8.5l-3.6,5.5 M256.4,143.1l-1.5,1.5l-1.3,1.6 M262.8,168.8
	l6.3,13 M271.2,185.7l8.4,14.4l3.1,5.6 M284.7,209.2l1.8,3.3 M292.4,111.5l-2.4,3.8 M287.4,118.9l-1.4,1.8l-3,3.2l-6.2,6.3l-6.8,8.7
	 M267.3,142.2l-2.8,3.5 M269.2,156.1l1.4,3.1 M274.3,166.1l5.6,10.7 M284.1,184.5l7.9,14l6.3,12.6 M301.7,113.4l-2.4,3.8
	 M296.7,120.8l-4.1,5.3l-6.2,6.3l-4.4,5 M282,154.5l1.8,3.4 M287.2,164.8l7.7,14.8 M299.1,187.4l5.1,9.6l2.7,6.1l2.2,4.4 M319.7,109
	l-1.6,2.1 M310.9,122.2l-1.4,1.7l-3.1,3.1l-5.8,6.7l-3.2,3.1l-5.6,4.4 M299.6,160.1l1.6,3.3 M302.5,166.6l4.5,9.9 M308.6,180
	l9.5,18.4 M320.2,202.1l3.5,6.3 M330.5,113.3l-3,5.9l-2.3,3.8l-2.7,3.4l-7.5,8 M308.9,140.7l-3.9,3.8 M310.7,154.4l2.2,4 M315,162.2
	l3.6,7.2 M321.2,175.7l0.7,2.5 M322.7,180.9l1.4,3.2 M328.2,191.8l4.1,7.6 M334,202.8l2.2,4.3 M337.2,122.9l-3.2,5.7l-1.3,1.7
	 M330,133.6l-1.4,1.7l-4.8,7.6l-3.3,3.5 M333,170.4l2,7.6 M336,180.9l2,4.8l3.4,7.1l1.8,3.6l4.9,8.8 M355.5,122.4l-5,3.3l-3.2,2.5
	l-2.5,3.2l-1.1,1.8 M341.4,136.8l-1.2,1.7l-2.7,3.3l-3.5,5.4 M340.5,158.1l2.1,3.9 M344.6,167.8l1.5,4.4l0.8,2.7l1,4.8l1.1,3.1
	l3.6,7.4l7.1,13.5 M362.6,128.7l-4.6,3.5l-2.8,2.7l-1.2,1.6 M352,140.1l-3,5.5l-2.4,3.3 M351.8,160.4l1.5,3.4 M356.5,170.8l0.7,1.7
	l1.5,4.3 M359.8,179.8l0.6,1.6l1.8,3.7l10.4,18.7 M375.3,130.7l-4.5,3.2l-2.7,2.5l-10.8,13.2 M362,160.6l1.8,3.6 M365.4,167.6
	l1.9,4.7l1.9,3.8l7.8,13.2l7.5,13.8 M388.3,133.8l-2.9,2.2 M382.5,137.9l-3,2 M376.7,142.3l-6.5,6.4l-2.7,2.2 M377.4,170.1l8.4,14.2
	l6,10.6l4.1,6.5 M400.2,135.5l-2.6,2.4 M394.9,140.2l-9.8,7.7l-7.1,5.1 M385.4,165.6l2,3.4 M389.6,172.6l5.9,9.2l3.9,5.7
	 M402.3,191.8l4.7,6.6 M414.5,141.5l-5.5,2.2l-1.6,0.9 M401.2,148.4l-4.4,2.9l-4.8,2.4 M389.5,154.9l-0.9,0.5 M399.5,170.5l7.4,9.2
	l8.7,10.2 M257.4,168.7l2.4,0.9l0.6,0.6l0.1,0.7 M278.8,201.7l-1.3-0.4l-1,0.3l-0.4,0.6l-0.6,1.3l-0.2,1.3 M288.5,191.1l-1-2.6
	 M180.6,154.9l-0.8-0.7l-0.9-0.4l-1.1,0l-1.6,0.4l-1.9,0.8l-4.5,3.5 M352.6,121.8l-1.8-1.4l-0.2-0.4l-0.1-0.8l0.1-2.2l0.3-1.1
	 M203.4,134.6l1.6,0.5l1.5,0l0.3,0.1l0.2,0.3 M283.1,115.7l1.9,0.5l1,0l1.6-0.3l7.9-0.5 M344.6,190l-0.2,0.5l0,0.3l0.7,0.1
	 M240.1,158.9l-1.1,0.1l-0.5-0.3L238,158l-1-2.6 M281.1,116l4.8,1.2l0.7,0l1.6-0.4l3.3,0 M368,208.8l-1-1.4l-0.3-0.9l-0.1-1.2
	l-0.3-1.1l-2-5l0-0.8l0.2-0.8l0.3-0.8l0.5-0.7 M313.9,154.1l3.4,1.8l0.9,0.6l4.2,5 M345.3,197l-1.4-2.7l-0.6-0.6l-2.8-2l-1.6-0.8
	l-0.9-1.1 M330.5,214.5l-1,0.3l-2.7,1.2H326l-0.6-0.2 M365.4,156.7l-0.1,0.8l-0.4,0.2 M162.9,134.6l-1.1-1.7l-0.8-0.7l-0.8-0.4
	l-0.9-0.1 M332.9,113.5l-1.5-0.2l-1.4,0.1l-2.5,0.5l-2.5-0.4l-3.6-0.3l-1.1,0.2l-0.6,0.4 M337.8,152.9l-1.8-0.1l-1.8,0.5l-1.1-0.1
	 M239.6,158.1l-1.1,0.1l-0.6-0.5l-1-2.3l-0.3-1.5 M402.6,171l-5.5,1.2l-0.6-0.2l-0.5-0.4l-0.7-1.2 M340.9,168.8l0.2-0.2l0.6,0.1
	l1.7,1 M357.8,199.3l-2-0.8l-1.1-0.9l-1.6-0.3l-1.4-0.6l-1.5-0.2 M413,138.4l-0.3,2.6l-0.3,1.1l-0.8,1.4l-0.3,0.2l-0.5-0.1
	 M248.7,219.5l-1.7,0.1l-0.9-0.2l-1.4-1.5l-2-1.1 M398.1,145.4l0.6-1.3l0.1-1.5l0.2-0.8l0.2-0.1l0.5,0.1l1.2,0.7l0.3,0.5
	 M380.9,192.4l1-0.7l1.8-1.6l2.2-2.6l1.7-2.4 M326.2,180.4l-1.9-1.6l-0.8-0.4l-0.9,0l-1.4,0.7 M299.1,188.7l0-2.7l-0.3-2.1l-0.9-2.6
	l-0.9-3.3l0-0.7l0.3-1.6 M247.8,110.4l-0.2,0.7l-0.4,0.7l-0.6,0.6l-1.6,0.8l-6.1,0.5l-3.2,0.5 M289.1,105.5l-0.6,0.8l-0.1,0.4
	l0.2,0.9l0.9,1.6l1.3,1.2 M347.3,199.8l-1,0l-0.7-0.3l-0.6-0.5l-3.2-5.2l-0.5-0.6l-2.4-1.6 M210.2,110.4l1-2.8l0.3-3.4l2.6-11.2
	l0.6-6.7l3.4-12.2l1.2-1.3l3.6-4.8l2.3-3.4l1.2-3.4l3.8-3.3l1.3-1.6l2.2-1.6l1.1-3.3l1.8-2.7l0.8-2.8l2.2-3.5l3.1-2.8l2.8-2.9
	l3.4-1.1l2.9-1.9l1.8-0.9l1.5-0.1l1.7,2.8l1,3.9l0.1,2.8l1.1,5l-0.8,5.4l2.5,7.1l1.6,5.1l3.2,4.7l5.2,5.7l2.2,3.1l0.2,1.5l0.6,2.4
	l1.2,3.1l1.7,2.8l2,2.2l2.4,0.8l1.5,0.8l3.1,2.9l4,5.1l5.8,6.6 M296.3,106.7L296.3,106.7 M215.1,109.4l1.1-2.7l0.6-2.8l0-2.8
	l0.5-2.9l0.2-3.5l0.4-3l1.1-3.4l0.1-2.4l0.7-2.9l1.2-3.1l0.6-2.6l2.3-4l2-2.6l1.9-3.2l2-4.1l2-2.3l1.5-2.4l1.2-1l1.7-0.9l0.6-2.7
	l3.3-6.2l3-3l2.9-3.3l3.7-2.5l4.4-1.3 M220.1,108.3l1-2.2l1.5-6.4l-0.3-2.8l-0.1-2.8l0.5-3.1l0.2-3l1.1-2.7l0.3-2.5l1.1-3.1l3.1-4.4
	 M225.1,107.4l1.3-1.8l0.6-2.7l0.5-2.9l-0.1-3.1l0.6-3.1l-0.1-3.1l0.5-2.7l2.2-9.4l2-1.9l2.7-2.1l1.7-4.3l2-3.5l0.8-1.8l2.2-1.7
	l1.9-2 M230.1,106.6l1.7-1.8l0.6-2.6l0.1-2.8L233,93l0.6-3.3l0-3.2l1.1-2.9l0.3-2.8l1.9-3l2.4-2.2l1.7-2.7l2.6-5l1.7-1.4l1.8-2.2
	l2.4-1.9 M235.1,105.9l1.3-2l0.9-9.6l0.8-3.1l-0.4-3.2l3.8-7.3l2.5-2.6l1.3-3.8l2.1-2.8h1.5l2-1.2 M240.2,105.3l1.1-2.5l0.6-3.1
	l0.5-3.4l-0.3-2.5l0.6-2.9l1-2.2l0.5-1.7 M245.2,104.8l1-2.6l0.2-4.9l0.5-2.2l1-2.8l3-4.7l1.9-2.4l2.3-3.9l3.5-3.3l2.6-2.8
	 M250.3,104.4l0.6-2.1l0.2-2.2l1.6-5.2l1.1-2.5l3.6-5.2l3-2.1 M255.4,104.1l1.2-1.7l1.1-5.2l1-2.8l2-2.5l4.8-3.9l2.1-2 M260.4,104
	l1.2-1.5l0.5-2.9l0.8-2.5l1.2-2.4l2-2.8l2.6-1.9 M265.5,103.9l1.2-1.3l0.6-3l2.7-5.7 M270.6,103.9l2.2-1.7l0.3-3.3 M275.6,103.9
	l2.2-0.7l0.8-2.6l2.6-2.7 M280.7,104.4l2.4-0.3 M285.8,104.9L285.8,104.9 M290.8,105.8L290.8,105.8 M161.4,160.1l24.6-8.4l0.4,0.9
	l-24.4,10.7 M161.8,164.3l40.6-11.5l0.3,1L161.3,168 M161,168.9l54.2-11.8l0.2,1l-55.8,14.8 M159.5,173.6l67.4-10.3l0.2,1l-68.5,13
	 M158.4,177.9l72-6.1l0.1,1l-73.2,8.8 M157.1,182.1l78.6-1.4l0,1l-79.3,4.1 M156.4,186.2l80.4,3.9l0,1l-80.5-1.3 M156.6,190.3
	l71,8.4l-0.1,1l-71.3-5.8 M156.7,194.4l68.6,12.9l-0.2,1l-69-10.3 M156.8,198.4l65.1,16.9l-0.2,1L155.9,202 M156.9,202.5l56.6,19
	l-0.3,1L155.8,206 M168.4,209.6l17.9,7.8l-0.4,0.9l-30.2-10.3 M183.4,153.9l3.2,1.4l1.6,0.5l1.6,0.3l1.6,0l1.6-0.2l1.6-0.4l3.2-1.2
	 M198.2,155.3l2.1,1.9l1.1,0.8l1.2,0.6l1.2,0.3l1.3,0.1l1.4-0.1l2.8-0.6 M209.6,159.6l1.7,2.2l0.9,0.9l1,0.8l1.1,0.5l1.2,0.3
	l1.3,0.1l2.8-0.1 M220,165.6l-0.5,2l0,1.8l0.3,0.8l0.6,0.7l0.8,0.6l1.9,1 M223.1,173.7l-0.1,2.3l0.4,2l0.5,0.8l0.7,0.7l0.9,0.6
	l2.1,0.9 M227.8,182.1l-1.1,1.9l-0.5,1.8l0.1,0.8l0.4,0.8l0.6,0.8l1.5,1.5 M228.8,191l-2.7,0.5l-1.2,0.4l-1.1,0.6l-0.9,0.8l-0.8,0.9
	l-0.6,1.1l-1,2.5 M220.4,199.1l-1.7,1.1l-1.1,1.3l-0.2,0.8l0,0.8l0.2,0.9l0.8,1.9 M218.2,207.2l-1.8,0.9l-1.3,1.1l-0.3,0.7l-0.1,0.8
	l0.1,0.9l0.6,2 M215.1,214.9l-2.3,0l-2,0.5l-0.8,0.5l-0.7,0.7l-0.6,0.9l-0.9,2.2 M207.4,220.8l-5.1-2.3l-2.6-1l-2.6-0.8l-2.7-0.5
	l-2.7-0.3l-2.8-0.1l-5.6,0.2 M199.2,156.3l2.2,1.7l1.2,0.6l1.2,0.3l1.3,0.1l2.8-0.3 M210.4,160.8l1.8,2l1,0.8l1.1,0.5l1.2,0.3
	l2.7,0.1 M219.7,166.7l-0.3,1.9l0.1,0.8l0.3,0.8l0.6,0.7l1.6,1.1 M197.5,170.6l-0.2,1.3l0.1,0.6l0.6,0.9l1.1,0.7 M223.1,174.9
	l0.1,2.2l0.3,0.9l0.5,0.8l0.7,0.7l1.9,1 M199.7,177.4l0.1,1.4l0.2,0.6l0.8,0.9l1.2,0.7 M227.2,183.1l-0.8,1.8l-0.1,0.9l0.1,0.8
	l0.4,0.8l1.3,1.6 M202.4,184.1l-0.5,1.2l0,1.1l0.2,0.5l0.8,1 M227.4,191.2l-2.5,0.7l-1.1,0.6l-0.9,0.8l-0.8,0.9l-1.2,2.3
	 M202.6,190.8l-1.6,0.5l-1.3,0.9l-0.5,0.6l-0.8,1.5 M219.5,199.7l-1.5,1.2l-0.4,0.7l-0.2,0.8l0,0.8l0.6,1.8 M197.4,197.8l-0.9,0.8
	l-0.3,0.5l-0.1,1l0.4,1.2 M217.2,207.6l-1.6,1l-0.5,0.6l-0.3,0.7l-0.1,0.8l0.3,1.8 M213.9,214.8l-2.2,0.2l-0.9,0.3l-0.8,0.5
	l-0.7,0.7l-1,1.9 M231.7,219.4l5,4l1.9,3.1l2.8,2.6l1.6,2.7l5.2,10.8l0.6,2.9l0,2.4l2.2,8.9l1.2,3.4l-0.4,3.1l-3.8,4.8l-0.8,3.4
	l-1.9,2.4l-8.7,3.3l-3.6-0.4l-7.9-3.2l-5.9-3.6l-4.1-2.1l-7.4,0.1l-2.8-0.9l-7.6-4.8l-9.8-8.7l-15.3-26.1l-0.9-2.6l0.7-3.8l-1.2-3.9
	l-3.8-5.1 M226.6,219l6.2,5.8l1.6,2.5l2.9,2.3l4,7 M221.6,218.6l3.2,3.8l5.6,4.6l2,2.5l2.3,2.3l3,2.2l2.4,3.5l2.4,2.8l0.5,2.7
	l1.6,2.5l1.7,3.6 M216.5,218.2l5.6,6.4l2.4,1.9l9.1,10l2.4,3.5l2.2,2l0.8,3.4l3.5,5.9 M211.5,217.9l2.6,3.5l2.1,3.3l2.4,2.7l2.5,2.5
	l2.2,1.9l2.2,5.2l2.6,2.8l2.3,3.4l2.8,3.4l2.6,2.7l1.9,3.1l2,1.5l1.8,1.9 M207.9,219.3l1.4,1.8l3.6,6.1l2.2,2.8l2.4,2.8l2.3,2.2
	l0.9,2l0.6,2.7l4.6,7l2.6,2.9l2.4,2.1l2.2,2.3l4.5,3.1l4.3,5.1l1,3.1l0.5,4.3 M202.6,218.6l1.9,2.3l2.1,3.3l2.8,6.2l4.6,4.9l4.3,5.2
	l2.2,5.6l1.6,3.5 M196.4,216.6l2.7,3.6l2.1,3.2l2.6,6.8l2.9,2.4l2.1,2.3l2.2,2.1l2,3.4l1.9,7.2l1.5,3l1.9,2.7l1.3,2.7l1.5,2l1.9,1.1
	l1.5,2.8l1.1,2.7l2.7,3.8l3.7,3.8 M191.3,216l2.9,4.2l3.8,5.7l3.6,6.7l3.9,4.3l1.3,2.5l2.3,3.6l2.7,7.3 M186.7,216l6.2,9.6l1.7,2.3
	l3.4,6.5l0.9,2.5l1.4,2.8l3.2,3.6l1.6,3.2l1.6,4.2l1.4,2.9l2.2,2.5 M181.8,215.6l3.4,6.3l2.8,6.1l1.8,2.8l1,2.7l1.9,2.8l2.6,5
	l2.3,3.2l1.6,5.2l3.4,6.4l1.7,2.2l1.3,2.5l2.3,3 M176.2,213.7l3.7,7.8l3.2,8.5l3,6.7l1.3,3.6l2.6,5.6l2.8,3l1.6,3.1l0.8,3.1l1.2,2.4
	 M171.2,212.8l1.9,4.3l5.2,13.8l1.6,3l1.1,2.8l0.3,3.1l1.3,3.4l1.5,3 M371.6,208l3.5,4.9l2.3,4.2l4.7,5.9l-8.3,1.8l-2.3,1.5
	l-3.2,0.3l-4.6-1.5l-2.3,1.3l-2.1,1.7l-1.5,2.8l-1.9,2.4l-3.2,0.9l-2.9,1.2l-2.6,1.5l-2.1,2.2l-3.6,9l-3.7-0.3l-5.1,3.5l-1.6,2.2
	l-1.8,2.1l-0.5,3.6l-0.2,3.8l-1,3.3l-1.9,2.4l-5.8,2.8l-1.6,1.6l-2.2,3.2l-2.5-1.2l-0.4-3.1l0.9-4.2l-5.3-8.4l-1.5-1.8l-4.2-4
	l-1.8-3.4l-2.5-6.1l-1.9-2.7l-3-5.5l-0.9-2.9l-1.9-3.3l-3-6.6l-2.8-3.7 M366.6,209.1l4.7,5.8l3.3,7.4 M361.7,210.2l4.6,5.6
	 M356.7,211.4l5.1,5 M351.8,212.5l4.6,4.2l2.9,3l2.7,3.8 M346.8,213.5l3.4,4.6l3,2.9l2.2,3.1l2.6,2.6 M341.8,214.4l2.7,4.4l4.4,6.2
	 M336.8,215.2l3,5l2.5,3.5l1.6,2.8 M331.8,215.8l2.9,5l2.5,3.8l2.3,2.8l1,2.6l1.2,2.6 M326.7,216.3l5.4,8.5l4.6,6.4l1.7,3.8l2.1,2.8
	 M321.7,216.8l2.6,4l2.7,3.1l1.4,3.5l2,2.7l1,4l2.1,3.7l3.9,2.9l2,2.9 M316.6,217.3l5.3,6.8l1.4,3.4l1.7,2.8l2.2,2.9l1.7,7
	 M311.6,217.6l5.2,6.8l2.6,3.1l1.4,3.2l1.7,3.2l0.1,3.2l0.7,2.9l2.1,3.8l4.2,2.9l1.2,2.3 M306.5,218l7.6,10l1.7,2.8l0.4,4l1.2,2
	l0.6,2.9l2.1,3.3l2.2,2.6l2.7,2.6l1.7,2 M301.4,218.3l7,10.7l3.2,6.2l-0.1,3.4l1.6,2.4 M296.4,218.6l4.6,7.8l2,2.7l1.4,3.4l0.6,3.6
	l2.9,6.3l4.1,4l2.3,2.7 M291.3,219l2.4,3.9l1.5,4l3.3,5.8l1.1,2.3l2.9,7l1.8,2.6l1.3,2.8 M414.6,135.5l3.2-0.8l10-5.5l15.5-8.1
	l2.9-2.9l2.7-1.8l3.1-1.6l2.1-0.5l2.6-4.2l2.6-2l2.1-1.4l3-0.8l3.7,0.3l3.8-1.6l2.1-1.8l2.7-3.9l4.2-2.3l2.5-1.7l1.1-0.4l2-0.2
	l2.2,0.2l-19.3,17.5l0,3.3l-0.6,2.7l0.2,3.7l-1.2,3l-4.1,4.2l-1.6,2.4l-2.6,5.4l-0.2,3.6l0.6,2.7l0.9,3.4l-0.6,3l0,3.6l-0.8,3.2
	l-1,3.1l-1,9.2l-0.6,2.5l-0.9,2l0.8,3.3l0.3,2.6l1.9,4.2l-0.6,3.4l0.4,5.6l1,1.8l1.9,2.6l1.5,4.5l1.3,6.2l1.3,3.8l2.1,4.1l1.1,3
	l0.4,2.3l0.1,5.1l0.9,7l19.5,16.3l-1.3-0.5l-2.5-3l-3.1-2.7l-2.8-1.9l-3.7-1l-3.5-1.6l-3.3-1.2l-5.5-3.4l-2.3-2.5l-4.9-3.2l-1.6-1.9
	l-1.7-2.4l-1.5-1.6l-2-1.4l-6.5-3.9l-5.6-4.5l-2.4-1.4l-2.8-2.2l-9.3-5.1l-9-7.3 M414.6,138.5l3.3-0.5l2.7-1.1l5.1-2.9l2.8-1l4.4-1
	l3.5-2.4l2.8-2.3l2.4-1l3.1-0.2l2.4-1.1l2.3-2.2l3.7-2.4l2.7-0.1 M421,140l2.8-1l2.3-1.3l3.5-1.1l3.8-0.8l7.7-3.9l4.9-1.2l1.9,0
	l1.6-0.6 M424.6,142l3.1-0.6l2.8-1.1l3.5-0.5l6-2.5l3.7-1.1l2.5-0.4l2.9,0.2l2.9-0.8l2-1.1l2.4-0.7l2-1.3l3.1-0.4 M418.6,148
	l3.6-1.4l2.8-0.8l3.2-1.3l3.1-0.6l2.3-0.2l8.1-2.2l3.3-0.1l2.1-0.5l2.7,0.4 M418.8,151.2l3.6-0.7l3.4-0.9l2.3-1.1l3.2-0.6h3.2
	l3.3,0.4l3.7-0.8l3.2-0.4l3.8-0.2l2.9-0.8l1.9-1.1 M418.7,153.8l3.5,0l3.6,0.3l3.2-0.2l3-0.9l2.8,0l3.1-0.8l4-0.4l4.1,0l3.8-0.7
	l4-0.5 M414.6,156.7l7,0.2l4.1,0.5l3.8-0.2l3,0.9l2.5,0.3l2.5-1l4-0.2 M422.4,160.6l10,1.2l2.5,0.5l6.3-0.1 M425.6,163.9l3.4,0.6
	l3.5,0.4l3.6,0.9l3.8-0.4 M425.8,167.4l2.8-0.2l3.6,0.4l4.6,1.4l4.7,2.2l4-2.2l3.9,0.9 M422.5,170.7l3-0.2l3.4,0.2l3.4,1.3l3.6,1
	l3.7,0l3.2,1.3l3.8-0.2l3.1-0.7 M426.4,174l2.7,1.1l9,2.9l2.8,0l4.6-1l3.3,2.2l3.2,0.2 M426.1,178.4l9.2,2.2l3.4,1.9l6.9,0.8l3.1,1
	l3.6,0.4 M425.2,181.8l3.3,0.1l4,1.4l3.6,1.8l3.6,2.2l3.4,1.1l3.9,0.3l2.7,0.1 M424.4,185.4l6.8,1.9l3.8,2l5,2.1 M414.6,183.9l3.6,3
	l2.8,1.2l3.1,0.7l3.3,1.2l7.4,3.3l3.4,1l2.6,1.1l2.9,1l3.7,2.1l2.8,2l3.2,0.5 M414.6,186.9l3.6,2.8l3,1.3l3.6,1.2l6.3,3.8l2.5,0.2
	l9.1,3.7l2.7,2.4l2.8,1.5l9.3,2.7l2.5,1.9l3.5,1.6 M418.2,192.5l7.1,3.8l5.9,4l1.9,0.4l3.6,1.1l3.5,0.7l3.2,3l2.2,0.6l3.1,1.6
	l3.3,1.5l4.5,3.2l5.2,4.8 M421.6,197.5l3.1,2.5l5.4,3.7l3.3,1.4l11.8,6.5l2.1,2.1l2.4,1.7l4.1,1.6l1,2.6l1.9,2.3l3.1,2.7l4.3,1
	 M401.7,197.2l-3.8,1.2l-1.6,1.3l-1.2,1.7l-1.4,1.5l-2,0.4l-3.7-1.4h-2l-1.8,0.7l-2,0.5l-2,0.3l2.1,2.1 M44.7,187.3l5.6-5.2l3.4-3.5
	l3.2-4.4l5.1-5l6.6-4.7l7.6-5.8l17.6-11.8l9-5l8.9-3.9l16.7-6.5l7.7-3.3l7-2.8l5.9-1.8l4.7-1.1l2.6-0.4l2.3,4.8l0.7,4.6l0.2,4.6
	l-0.2,4.5l0.5,9.1l2,13.9l-0.7,4.5l-1.5,4.3l-1,4.4l-2.6,8.8l-2.2,8.8l-1.7,4.3l-2.1,4.3l-4.6,4l-23.9,0.3l-17.5-0.6l-7.4-0.6
	l-12.9-1.6l-6-1l-5.8-1.5 M133.6,157.6l0.4,4l0,3.9l-1.4,3.6l-2.4,3.3l-3.7,5.5l-1,2.4l-0.1,2l1.2,4.1l0.6,2.6l-1.4,3l-8.9,0.5
	l-20,1.7l-6.2,0.2l-5.7-0.2l-5.3-0.5 M67.7,201.6l-3.3-1l-4.8-1.6l-4.8-1.9l-4.7-1.6l-4.9-1.9l-2.4-0.7l-2.1-1.4l-0.4-2.5l1.8-1.9
	l2.6,0l6.9,3.6l11,6.3l4.5,2.3l5,2.3 M71.8,202.8l-7.6,0.5l-7.7,0.3l-22.7,0.7l-2.4-0.5l-1.4-2.1l0.7-2.4l2.3-0.9l17.8,1.7l5,0.7
	L61,201l2.4,0.4l2.6,0.2l5.8,0.2 M101.1,172.8l-2.1-2.9l-1-3.4l0.2-3.6l1.3-3.3l2.3-2.7l3.1-1.8l3.5-0.7l3.5,0.4l3.2,1.6l2.5,2.5
	l1.6,3.2l0.4,3.6l-0.7,3.5l-1.8,3.1l-2.7,2.3l-3.3,1.3l-3.6,0.1l-3.4-1L101.1,172.8 M115.9,160.1l1.3,2.6l0.3,2.9l-0.6,2.8l-1.5,2.5
	l-2.2,1.8l-2.7,1l-2.9,0.1L105,173l-2.3-1.7 M105,167.5l-0.8-1.2l-0.4-1.4l0.1-1.4l0.5-1.3l0.9-1.1l1.2-0.7l1.4-0.3l1.4,0.2l1.3,0.6
	l1,1l0.6,1.3l0.2,1.4l-0.3,1.4l-0.7,1.2l-1.1,0.9l-1.3,0.5l-1.4,0.1l-1.4-0.4L105,167.5 M104.4,166.6l1.5,1.5 M104.1,163.6l5,5
	 M105,161.7l5.9,5.9 M108.1,162.1l3.9,3.9 M110,161.3l2.2,2.2 M46,186.1l4.1,4.1 M49.2,183.1l3.2,3.2 M52.3,180.1l5.5,5.5
	 M55.1,176.8l6,6 M57.8,173.4l5.5,5.5 M60.9,170.4l3.6,3.6 M64.2,167.7l5.1,5.1 M67.8,165.1l5.8,5.8 M71.2,162.5l5.8,5.8
	 M74.7,159.9l3.5,3.5 M78.3,157.4l5.6,5.6 M81.9,155l4.3,4.3 M85.6,152.5l4.3,4.3 M89.2,150.1l5,5 M92.8,147.6l5.4,5.4 M96.7,145.3
	l6,6 M100.6,143.1l4.5,4.5 M104.6,141.1l6.1,6 M108.8,139.2l4,4.1 M113.1,137.4l5.1,5.1 M117.5,135.7l3.2,3.2 M121.9,134l6,6
	 M126.3,132.3l5.9,5.9 M130.6,130.5l4.8,4.8 M134.9,128.7l3.6,3.6 M139.2,127l3.7,3.7 M143.6,125.3l4.8,4.8 M148.2,123.8l5.5,5.5
	 M153.1,122.6l5.8,5.8 M75.5,169.9l-0.2-2l-0.9-2.8l-0.2-2 M143.5,174.7l0.8-1l1-0.5l0.4-0.7 M154.5,171.4l0.4,1.1l0.3,2.7l0.7,1.9
	l0.3,2.1l0,0.8 M114.1,148.9l-2.6-1.6l-2.1-0.9l-2.8-0.2l-1.4,0.4 M146.7,202.3l-1-2l0-1.4l-0.3-0.9 M96.7,181.6l1.3-0.2l0.2-0.2
	 M92.9,168.4l-0.4,0.5l-0.2,0.9l0,0.7l0.5,1.4l0.9,1.3l1.3,1 M156.5,165.9l2.9,3.1l1.2,0.9 M155,153l0.2,2l1,4l0,2.5l0.4,1.2
	l1.4,2.2 M130.8,147.1l0.5,0.8l1.3,1.2l4.4,3 M130.2,138.4l-2.2-1.4l-1.2-0.5l-2.4-0.2l-4.7-1.4 M92.2,183l-0.1,2.3l0.3,1.9l0.3,0.8
	l0.4,0.5l0.6,0.4l0.7,0.2l1-0.2l0.5-0.7 M145.3,185.3l-0.3,0.4l-0.4,0.2l-2.4,0.3l-2.4,0.7l-1.1,0l-1.1-0.3l-1-0.5l-0.8-0.7
	l-0.8-1.6l-0.2-1.3 M80.2,162.5l-0.8,0.9l-1.1,1.6l-1.1,0.8l-0.7,0.2l-0.7-0.1l-0.6-0.4l-0.4-0.5l-0.4-1.8 M138.8,139l0-0.4l0.2-0.5
	l1.1-1.1l0-1.5 M91.7,197.2l-0.2-4.2l0.3-1.2l0.4-0.6l0.5-0.3l2.7-0.5 M96.2,171.1l0.5,1.1l1.2,1.1l0.7,0.8l0.8,3.9l0.1,1.5
	 M156.8,167.1l1.3,1.7l2.2,2.1 M120,206.7l-2.3-0.6l-1.8-1.1l-1.4-0.6l-0.8,0l-0.8,0.3l-0.8,0.6l-1.3,1.7 M130.1,193.7l0.2-1.7
	l0-2.7l0.2-0.7l2.9-5.3l0.5-1.7L134,181 M118,159.5l0-0.6 M124.4,184.5l0.7-0.3l3.9-2.9l0.9-0.4 M93.6,154.8l1.3,1.2l0.3,0.5
	l0.2,1.4l-0.2,1.8l-0.8,2.1l-0.3,1.6 M154.2,140.7l-1.7,1.7l-1.6,0.5l-0.9,0.6l-0.8,0.9l-0.2,0.6 M94.1,171.1l0.2,0.8l0.8,1l2.2,1.1
	l0.8,0.6l1,2.7 M159.5,139.2l-0.6-0.3l-0.2-0.3l-0.2-1.1l0.1-0.9 M155.8,163.7l5.2,5.4 M82.8,157.3l0.7,0.9l-0.1,1.7 M63.7,197.8
	l2.2-3.7 M141.6,199l-0.5-1.7l-1.7-2.9l-0.3-1.1l-0.1-2.6l-0.2-0.7l-0.5-0.6l-1.7-1.2l-1.2-1.2 M157.2,181.9l-0.4-0.2l-0.4,0
	l-0.2,0.3l-0.1,0.8 M66.7,184.1l1-1.4l0.3-1l-0.2-3.5l0.5-2.3l0.3-2.2l1.5-3.4l1.6-2.2 M64.5,198.2l0.6-1.3l0.2-1.2 M90.6,151.9
	l0.1-1.6l-0.1-1.2 M158.1,143.2l-2.8,3l-2.3,2.1l-2.9,3.7l-0.3,0.7l0.1,2.1 M81.5,155.3l1.8,1.3l0.8,0.9l0,0.6l-0.3,0.9
	 M152.1,163.9l2.3,1.2l1.7,1.1l2.3,2.7l1.9,1.7 M104.2,185.4l-0.4-1.8l-0.7-1.8l-0.2-1.6 M73.1,188.5l1.5-2.4l0.4-3.3l0.1-2.2
	 M129,161.6l0.4-0.6l0.6-0.3l2.5-0.8l2.5-0.2l0.7-0.5 M46,203.9l13.2,2l6.1,0.6l6.1,0.2l6.1-0.1l12.5-1.2 M53.8,205.2l0.6-0.5
	l0.6-0.9 M75.2,205.8l-0.3-0.8l-0.6-0.7 M157.1,123.6l8.6,8.6 M162.3,120.7l7.8,7.8 M168.9,119.1l10.7,10.7 M175.5,117.7l11.4,11.4
	 M182.3,116.3l11.8,11.8 M189.1,114.9l8.5,8.5 M195.8,113.5l8.6,8.6 M202.5,112.1l10,10 M209.1,110.6l9.6,9.6 M215.8,109.2l6.5,6.5
	 M222.6,107.9l9.4,9.4 M229.5,106.7l8,8 M236.7,105.7l10.8,10.8 M243.9,104.9l11.8,11.8 M251.5,104.3l10.2,10.2 M259.3,104l7.3,7.3
	 M267.4,103.9l10.6,10.6 M275.5,103.9l11.8,11.8 M284.4,104.8l7.8,7.8 M294.1,106.3l9.1,9.1 M303.4,107.5l8.2,8.2 M312.2,108.2
	l9.1,9.1 M321.1,109l8.6,8.6 M331,110.7l10.7,10.7 M341.9,113.5l7.3,7.3 M353.1,116.6l7.7,7.7 M364.7,120.1l9.5,9.5 M376.3,123.6
	l11.9,11.8 M388,127.1l10.5,10.5 M399.9,130.9l10.7,10.7 M411.7,134.6l9.2,9.2 M423.5,138.2l1.9,1.9 M258.2,128.3l0.6,0.3l0.4,0.9
	l-0.2,0.6l-0.6-0.3L258,129L258.2,128.3 M258.9,130l-0.5-0.5l0-1l0.4-0.5l0.4,0.5l0,1L258.9,130 M265,135.1l-0.4,0.5l-1,0.2
	l-0.6-0.3l0.4-0.5l1-0.2L265,135.1 M264.2,136.1l-0.3-0.6l0.2-1l0.5-0.4l0.3,0.6l-0.2,1L264.2,136.1 M250.6,124.4l0.4,0.5l0,1
	l-0.4,0.5l-0.4-0.5l0-1L250.6,124.4 M251.2,125.9l-0.6-0.3l-0.4-0.9l0.2-0.7l0.6,0.3l0.4,0.9L251.2,125.9 M256.1,137.2l-0.7,0.2
	l-0.9-0.5l-0.2-0.6l0.7-0.2l0.9,0.5L256.1,137.2 M254.6,136.2l0.6,0.3l0.4,0.9l-0.2,0.7l-0.6-0.3l-0.4-0.9L254.6,136.2 M254.7,117.1
	l0.1,0.7l-0.5,0.9l-0.6,0.2l-0.1-0.7l0.5-0.9L254.7,117.1 M253.4,117.7l0.7,0l0.8,0.7l0.1,0.7l-0.7,0l-0.8-0.7L253.4,117.7
	 M264,121.9l-0.4,0.6l-1,0.2l-0.6-0.3l0.4-0.5l1-0.2L264,121.9 M262.9,122.9l-0.1-0.7l0.6-0.8l0.7-0.2l0.1,0.7l-0.6,0.8L262.9,122.9
	 M244.9,134.5l0.3-0.6l0.9-0.4l0.6,0.2l-0.3,0.6l-0.9,0.4L244.9,134.5 M245.6,134.9l0-0.7l0.6-0.8l0.7-0.1l0,0.7l-0.6,0.8
	L245.6,134.9 M270.8,125.7l-0.4,0.6l-1,0.3l-0.6-0.3l0.4-0.6l1-0.3L270.8,125.7 M270.5,125.6l-0.5,0.5l-1,0.1l-0.6-0.4l0.5-0.5
	l1-0.1L270.5,125.6 M261.3,112.6l0.5-0.4l1,0l0.5,0.4l-0.5,0.4h-1L261.3,112.6 M263.1,112.6l-0.7,0.1l-0.9-0.5l-0.2-0.6l0.7-0.1
	l0.9,0.5L263.1,112.6 M243.3,123.4l-0.1-0.7l0.6-0.8l0.6-0.2l0.1,0.7l-0.6,0.8L243.3,123.4 M244.6,122.6l-0.7,0.1l-0.9-0.5l-0.2-0.6
	l0.7-0.1l0.9,0.5L244.6,122.6 M242.4,111.8l0.6,0.3l0.3,0.9l-0.2,0.6l-0.6-0.3l-0.3-1L242.4,111.8 M243.3,113.3l-0.6-0.3l-0.4-0.9
	l0.2-0.6l0.6,0.3l0.4,0.9L243.3,113.3 M251.5,109.4l-0.1,0.7l-0.8,0.6l-0.7-0.1l0.2-0.7l0.8-0.6L251.5,109.4 M251.4,110.3l-0.7-0.1
	l-0.7-0.8l0-0.7l0.7,0.1l0.7,0.8L251.4,110.3 M236.1,112.9l-0.5,0.4h-1l-0.5-0.4l0.5-0.5h1L236.1,112.9 M234.7,113.6l0.1-0.7
	l0.8-0.6l0.7,0l-0.1,0.7l-0.8,0.6L234.7,113.6 M233,125l-0.7,0.1l-0.9-0.6l-0.2-0.6l0.7-0.1l0.8,0.6L233,125 M232.6,125.1l-0.5-0.4
	l-0.2-1l0.3-0.6l0.5,0.4l0.2,1L232.6,125.1 M238.9,129.6l-0.6-0.3l-0.4-0.9l0.2-0.6l0.6,0.3l0.4,1L238.9,129.6 M237.8,128.8l0.6-0.3
	l1,0.2l0.4,0.5l-0.6,0.3l-1-0.2L237.8,128.8 M258,106.4l0,0.7l-0.7,0.8l-0.7,0.1v-0.7l0.7-0.8L258,106.4 M256.6,107.4l0.5-0.4l1,0.1
	l0.5,0.5l-0.5,0.4l-1-0.1L256.6,107.4 M271.7,133.8l-0.5-0.5l-0.1-1l0.4-0.6l0.5,0.5l0.1,1L271.7,133.8 M271,132.4l0.7,0.2l0.6,0.8
	l0,0.7l-0.7-0.1l-0.6-0.8L271,132.4 M284.3,131.6l0.6-0.3l1,0.2l0.4,0.5l-0.6,0.3l-1-0.2L284.3,131.6 M284.9,131.1l0.5,0.5l0.1,1
	l-0.4,0.5l-0.5-0.5l-0.1-1L284.9,131.1 M267.7,142.7l0.1,0.7l-0.5,0.9l-0.6,0.2l-0.1-0.7l0.5-0.9L267.7,142.7 M266.6,144.1l0.3-0.6
	l1-0.4l0.6,0.2l-0.3,0.6l-1,0.4L266.6,144.1 M276.1,121.3l0.6-0.2l0.9,0.4l0.3,0.6l-0.6,0.2l-0.9-0.4L276.1,121.3 M277.8,121.6
	l-0.6,0.3l-1-0.2l-0.4-0.5l0.6-0.3l1,0.2L277.8,121.6 M278.7,129.6l-0.3-0.6l0.2-1l0.5-0.4l0.3,0.6l-0.2,1L278.7,129.6 M279.6,128.9
	l-0.7,0l-0.7-0.7l0-0.7l0.7,0l0.7,0.7L279.6,128.9 M268.9,109.1l0.6,0.3l0.4,0.9l-0.2,0.6l-0.6-0.3l-0.4-0.9L268.9,109.1
	 M268.5,110.3l0.5-0.4l1,0.1l0.5,0.5l-0.5,0.4l-1-0.1L268.5,110.3 M229.3,135.5l-0.7,0.2l-0.9-0.5l-0.2-0.6l0.7-0.1l0.9,0.5
	L229.3,135.5 M227.9,134.5l0.6,0.3l0.4,0.9l-0.2,0.6l-0.6-0.3l-0.4-0.9L227.9,134.5 M237.6,137.6l-0.6-0.2l-0.5-0.9l0.1-0.7l0.6,0.2
	l0.5,0.9L237.6,137.6 M237.1,136l0.2,0.6l-0.3,0.9l-0.6,0.3l-0.2-0.6l0.3-1L237.1,136 M224.9,125.7l0-0.7l0.6-0.8l0.7-0.1l0,0.7
	l-0.6,0.8L224.9,125.7 M224.9,125.3l0.4-0.5l1-0.2l0.6,0.3l-0.4,0.5l-1,0.2L224.9,125.3 M223.7,114.3l0.3-0.6l0.9-0.3l0.6,0.2
	l-0.3,0.6l-1,0.3L223.7,114.3 M224.7,114.8l-0.2-0.6l0.4-0.9l0.6-0.3l0.2,0.6l-0.4,0.9L224.7,114.8 M216.7,130.6l-0.7,0l-0.8-0.6
	l-0.1-0.7l0.7,0l0.8,0.6L216.7,130.6 M216.4,129.4l-0.3,0.6l-0.9,0.4l-0.6-0.2l0.3-0.6l0.9-0.4L216.4,129.4 M218.6,117l0.5,0.5
	l0.1,1l-0.4,0.5l-0.5-0.5l-0.1-1L218.6,117 M218.6,117.2l0.3,0.6l-0.3,1l-0.6,0.4l-0.3-0.6l0.3-1L218.6,117.2 M244.8,106.2l-0.6,0.4
	l-1-0.1l-0.5-0.5l0.6-0.4l1,0.1L244.8,106.2 M244.4,105.6l-0.3,0.6l-0.9,0.4l-0.6-0.2l0.3-0.6l0.9-0.4L244.4,105.6 M252.5,96.2
	l0.3,0.6l-0.3,1l-0.6,0.3l-0.3-0.6l0.3-1L252.5,96.2 M252,98l-0.1-0.7l0.6-0.8l0.6-0.2l0.1,0.7l-0.6,0.8L252,98 M238.8,97l-0.5,0.5
	l-1,0.1l-0.5-0.4l0.5-0.5l1-0.1L238.8,97 M238.2,96.4l-0.1,0.7l-0.8,0.6l-0.7,0l0.1-0.7l0.8-0.6L238.2,96.4 M232.5,106.6l-0.3-0.6
	l0.3-1l0.6-0.3l0.3,0.6l-0.3,1L232.5,106.6 M232.1,105.2l0.7,0.1l0.6,0.8l0,0.7l-0.7-0.1l-0.6-0.8L232.1,105.2 M244.4,98.4l0.2-0.7
	l0.8-0.6l0.7,0.1l-0.2,0.7l-0.8,0.6L244.4,98.4 M244.8,98.4l0.2-0.7l0.8-0.6l0.7,0.1l-0.2,0.7l-0.8,0.6L244.8,98.4 M290,144.4v0.7
	l-0.7,0.8l-0.7,0.1l0-0.7l0.7-0.8L290,144.4 M288.8,145.7l0.3-0.6l1-0.3l0.6,0.2l-0.3,0.6l-1,0.3L288.8,145.7 M293.6,128.1l-0.6-0.3
	l-0.4-0.9l0.2-0.6l0.6,0.3l0.4,0.9L293.6,128.1 M292.5,127.2l0.6-0.2l0.9,0.4l0.3,0.6l-0.6,0.2l-0.9-0.4L292.5,127.2 M295.3,136.4
	l-0.6-0.2l-0.6-0.9l0.1-0.7l0.6,0.2l0.6,0.9L295.3,136.4 M295,134.8l0,0.7l-0.6,0.8l-0.7,0.1l0-0.7l0.6-0.8L295,134.8 M260.4,94
	l0.6-0.2l0.9,0.4l0.3,0.6l-0.6,0.2l-0.9-0.4L260.4,94 M262,94.9l-0.6-0.2l-0.5-0.9l0.2-0.7l0.6,0.2l0.5,0.9L262,94.9 M267.2,102.3
	l-0.6-0.3l-0.3-1l0.2-0.6l0.6,0.3l0.3,1L267.2,102.3 M267.7,101.3l-0.6,0.2l-0.9-0.4l-0.3-0.6l0.6-0.2l1,0.4L267.7,101.3
	 M308.9,135.1l-0.5,0.5l-1,0.1l-0.5-0.4l0.5-0.5l1-0.1L308.9,135.1 M308,135.9l-0.3-0.6l0.2-1l0.6-0.4l0.3,0.6l-0.2,1L308,135.9
	 M301.3,123.6l-0.3,0.6l-1,0.3l-0.6-0.2l0.3-0.6l1-0.3L301.3,123.6 M301.1,123.8l-0.6,0.3l-1-0.2l-0.4-0.6l0.6-0.3l1,0.2
	L301.1,123.8 M285.4,137.3l0.5,0.4l0.2,1l-0.3,0.6l-0.5-0.4l-0.2-1L285.4,137.3 M286.4,138.1l-0.6,0.3l-1-0.2l-0.4-0.5l0.6-0.3
	l1,0.2L286.4,138.1 M288.1,119.5l0.6,0.3l0.4,0.9l-0.2,0.6l-0.6-0.3l-0.4-0.9L288.1,119.5 M288,121l0.3-0.6l0.9-0.4l0.6,0.2
	l-0.3,0.6l-0.9,0.4L288,121 M277.7,136.4l0.4,0.6l-0.1,1l-0.5,0.5l-0.4-0.6l0.1-1L277.7,136.4 M278.3,137.1l-0.5,0.5l-1,0.1
	l-0.5-0.4l0.5-0.5l1-0.1L278.3,137.1 M255.2,86.1l0.7,0l0.8,0.7l0.1,0.7l-0.7,0l-0.8-0.7L255.2,86.1 M255.8,86l0.4,0.6l-0.1,1
	l-0.5,0.4l-0.4-0.5l0.1-1L255.8,86 M248.1,90.8l0-0.7l0.7-0.8l0.7-0.1l0,0.7l-0.7,0.8L248.1,90.8 M248.1,89.6l0.6,0.2l0.5,0.9
	l-0.1,0.7l-0.6-0.2l-0.5-0.9L248.1,89.6 M241.1,85.2l0.3,0.6l-0.2,1l-0.5,0.4l-0.3-0.6l0.2-1L241.1,85.2 M241.6,86.1l-0.6,0.2
	l-1-0.3l-0.3-0.6l0.6-0.2l0.9,0.3L241.6,86.1 M298.8,118.5l0-0.7l0.6-0.8l0.7-0.1l0,0.7l-0.6,0.8L298.8,118.5 M299.5,118.5l-0.2-0.6
	l0.4-0.9l0.6-0.3l0.2,0.6l-0.4,0.9L299.5,118.5 M300.6,132.8l0-0.7l0.6-0.8l0.7-0.1l0,0.7l-0.6,0.8L300.6,132.8 M301.3,132.7
	l-0.3-0.6l0.3-1l0.6-0.3l0.3,0.6l-0.3,1L301.3,132.7 M293.6,114.1l-0.5-0.4l-0.2-1l0.3-0.6l0.5,0.4l0.2,1L293.6,114.1 M294.1,112.8
	l-0.5,0.4h-1l-0.5-0.4l0.5-0.4h1L294.1,112.8 M223.5,103.6l0.5-0.4h1l0.5,0.4l-0.5,0.4h-1L223.5,103.6 M223.7,103.4l0.7,0l0.8,0.7
	l0.1,0.7l-0.7,0l-0.8-0.7L223.7,103.4 M229.4,92l-0.2,0.6l-0.9,0.5l-0.7-0.1l0.2-0.6l0.9-0.5L229.4,92 M229.3,92.8l-0.7,0l-0.7-0.7
	l0-0.7l0.7,0l0.7,0.7L229.3,92.8 M223.9,97.9l-0.7,0.1l-0.9-0.5l-0.2-0.6l0.7-0.1l0.9,0.5L223.9,97.9 M222.3,97.2l0.7-0.1l0.8,0.6
	l0.2,0.6l-0.7,0.1l-0.8-0.6L222.3,97.2 M257.1,149.6l0.1-0.7l0.7-0.7l0.7,0l-0.1,0.7l-0.7,0.7L257.1,149.6 M258.1,149.7l-0.4-0.5
	l0-1l0.5-0.5l0.4,0.5l-0.1,1L258.1,149.7 M217.3,136.6l-0.1,0.7l-0.7,0.7l-0.7,0l0.1-0.7l0.7-0.7L217.3,136.6 M216.2,137.9l0.2-0.7
	l0.8-0.6l0.7,0.1l-0.2,0.6l-0.8,0.6L216.2,137.9 M236.9,145.7l-0.6-0.2l-0.5-0.9l0.1-0.7l0.6,0.2l0.5,0.9L236.9,145.7 M236.3,145.6
	l0-0.7l0.6-0.8l0.7-0.1l0,0.7l-0.6,0.8L236.3,145.6 M294.6,149.9l0.3,0.6l-0.2,1l-0.5,0.4l-0.4-0.6l0.2-1L294.6,149.9 M295.1,151.2
	l-0.7-0.1l-0.7-0.8l0-0.7l0.7,0.1l0.6,0.8L295.1,151.2 M304.1,152.5l-0.2,0.6l-0.9,0.5l-0.6-0.2l0.2-0.6l0.9-0.5L304.1,152.5
	 M303,152.3l0.4,0.6l-0.1,1l-0.5,0.4l-0.4-0.6l0.2-1L303,152.3 M260.9,143l0.1-0.7l0.8-0.7l0.7,0l-0.1,0.7l-0.7,0.7L260.9,143
	 M262.4,142.4l-0.7,0.1l-0.9-0.6l-0.2-0.6l0.7-0.1l0.9,0.6L262.4,142.4 M232.9,75l0.5-0.4l1,0.1l0.5,0.5l-0.5,0.4l-1-0.1L232.9,75
	 M234.6,75.1l-0.6,0.2l-0.9-0.5l-0.2-0.6l0.7-0.2l0.9,0.5L234.6,75.1 M226.6,85l0.1-0.7l0.8-0.7h0.7l-0.1,0.7l-0.8,0.7L226.6,85
	 M227.8,85l-0.5-0.4l-0.2-1l0.3-0.6l0.5,0.4l0.2,1L227.8,85 M244.2,76.8l0.1-0.7l0.7-0.7l0.7,0l0,0.7l-0.7,0.7L244.2,76.8
	 M244.3,75.6l0.6,0.2l0.6,0.8l-0.1,0.7l-0.7-0.1l-0.6-0.8L244.3,75.6 M217.1,149.9l-0.4,0.6l-1,0.2l-0.6-0.3l0.4-0.5l1-0.2
	L217.1,149.9 M215.5,150.5l0.4-0.5l1-0.1l0.6,0.4l-0.4,0.5l-1,0.1L215.5,150.5 M210.6,126.1l-0.3,0.6l-0.9,0.4l-0.6-0.2l0.3-0.6
	l0.9-0.4L210.6,126.1 M209.7,127.3l-0.2-0.6l0.4-0.9l0.6-0.3l0.2,0.6l-0.4,0.9L209.7,127.3 M216.9,104.2l0.6,0.2l0.5,0.9l-0.1,0.7
	l-0.6-0.2l-0.5-0.9L216.9,104.2 M218.1,104.7l-0.5,0.5l-1,0.1l-0.5-0.4l0.5-0.5l1-0.1L218.1,104.7 M219.1,91.2l-0.2,0.6l-0.8,0.6
	l-0.7-0.1l0.2-0.7l0.8-0.6L219.1,91.2 M217.9,91l0.5,0.5l0.1,1l-0.4,0.5l-0.5-0.5l-0.1-1L217.9,91 M218.3,84.5l-0.5,0.4l-1,0
	l-0.2-0.2 M216.8,84.1l1,0l0.5,0.5 M217.1,83.7l0.4,0.6l-0.1,1l-0.5,0.4l-0.3-0.5 M216.8,84l0.3-0.3 M221.8,78.7l0.5-0.5l1-0.1
	l0.5,0.4l-0.5,0.5l-1,0.1L221.8,78.7 M222.7,79.4l-0.1-0.7l0.5-0.9l0.6-0.2l0.1,0.7l-0.5,0.9L222.7,79.4 M308.9,127.2l-0.7,0.2
	l-0.9-0.5l-0.2-0.6l0.6-0.1l0.9,0.5L308.9,127.2 M308.8,127l-0.7,0l-0.8-0.7l-0.1-0.7l0.7,0l0.7,0.7L308.8,127 M256.9,165.6l0.4,0.5
	l0,1l-0.5,0.5l-0.4-0.5l0-1L256.9,165.6 M257.6,166.4l-0.6,0.3l-1-0.2l-0.4-0.6l0.6-0.3l1,0.2L257.6,166.4 M319.3,144.9l-0.7,0
	l-0.8-0.6l-0.1-0.7l0.7,0l0.8,0.6L319.3,144.9 M318.9,144.9l-0.6-0.4l-0.3-1l0.3-0.6l0.6,0.4l0.3,1L318.9,144.9 M317.1,151l0.4,0.6
	l-0.2,1l-0.5,0.4l-0.4-0.6l0.2-1L317.1,151 M317.2,152.7l-0.4-0.5l0-1l0.5-0.5l0.4,0.5l0,1L317.2,152.7 M312,142l-0.4-0.6l0.1-1
	l0.5-0.4l0.4,0.6l-0.1,1L312,142 M311.4,140.7l0.7,0.1l0.7,0.7l0,0.7l-0.7-0.1l-0.7-0.7L311.4,140.7 M311.7,158.8l-0.2-0.6l0.5-0.9
	l0.6-0.3l0.2,0.6l-0.4,0.9L311.7,158.8 M311.4,158.1l0.6-0.3l1,0.2l0.4,0.5l-0.6,0.3l-1-0.2L311.4,158.1 M269,92.7l-0.4-0.6l0.1-1
	l0.5-0.4l0.4,0.6l-0.1,1L269,92.7 M269.9,91.8l-0.7,0.1l-0.9-0.5l-0.2-0.6l0.6-0.1l0.9,0.5L269.9,91.8 M255.6,78.6l-0.7,0.1
	l-0.9-0.5l-0.2-0.6l0.7-0.1l0.9,0.5L255.6,78.6 M254.6,77.3l0.4,0.5l-0.1,1l-0.5,0.5l-0.4-0.5l0.1-1L254.6,77.3 M266.3,83.3
	l-0.6,0.3l-1-0.3l-0.4-0.6l0.6-0.3l1,0.3L266.3,83.3 M264.7,82.6l0.6,0.2l0.5,0.9l-0.1,0.7l-0.6-0.2l-0.5-0.9L264.7,82.6
	 M260.4,75.1l0.5-0.4l1,0l0.5,0.5l-0.5,0.4l-1,0L260.4,75.1 M260.7,75l0.7-0.1l0.8,0.6l0.2,0.7l-0.7,0.1l-0.8-0.6L260.7,75
	 M254.7,66.7l-0.7-0.1l-0.7-0.8l0-0.7l0.7,0.1l0.7,0.8L254.7,66.7 M253.6,65.3l0.5,0.4l0.2,1l-0.4,0.6l-0.5-0.4l-0.2-1L253.6,65.3
	 M329.6,139.1l0.6-0.3l1,0.3l0.4,0.6L331,140l-1-0.3L329.6,139.1 M330.5,138.7l0.3,0.6l-0.3,1l-0.6,0.4l-0.3-0.6l0.3-1L330.5,138.7
	 M331.2,150.9l-0.6,0.2l-1-0.4l-0.3-0.6l0.6-0.2l0.9,0.4L331.2,150.9 M331,150.6l-0.6,0.2l-0.9-0.4l-0.3-0.6l0.6-0.2l0.9,0.4
	L331,150.6 M316.9,128l0.6,0.3l0.4,0.9l-0.2,0.6l-0.6-0.3l-0.4-0.9L316.9,128 M317.7,128.4l-0.3,0.6l-0.9,0.4l-0.6-0.2l0.3-0.6
	l0.9-0.4L317.7,128.4 M316.5,122.8l0.3-0.6l0.9-0.4l0.6,0.2l-0.3,0.6l-0.9,0.4L316.5,122.8 M317.3,121.7l0.3,0.6l-0.3,1l-0.6,0.3
	l-0.3-0.6l0.3-1L317.3,121.7 M332.7,133.2l-0.7-0.1l-0.6-0.8l0-0.7l0.7,0.1l0.6,0.8L332.7,133.2 M331.5,131.9l0.6,0.3l0.4,0.9
	l-0.2,0.6l-0.6-0.3l-0.4-0.9L331.5,131.9 M324.6,128.9l0.6,0.2l0.5,0.9l-0.1,0.7l-0.6-0.2l-0.5-0.9L324.6,128.9 M325.5,129.1
	l-0.1,0.7l-0.8,0.6l-0.7,0l0.1-0.7l0.8-0.6L325.5,129.1 M287.9,154.4l-0.7-0.1l-0.6-0.8l0-0.7l0.7,0.1l0.6,0.8L287.9,154.4
	 M287.3,152.8l0.2,0.6l-0.4,0.9l-0.6,0.3l-0.2-0.6l0.4-0.9L287.3,152.8 M286.8,165.9l0.1-0.7l0.8-0.6l0.7,0l-0.1,0.7l-0.8,0.6
	L286.8,165.9 M286.9,165.3l0.6-0.2l1,0.3l0.3,0.6l-0.6,0.2l-1-0.3L286.9,165.3 M278.9,96.8l-0.1,0.7l-0.8,0.6l-0.7,0l0.1-0.7
	l0.8-0.6L278.9,96.8 M278.3,96.7v0.7l-0.7,0.8l-0.7,0.1v-0.7l0.7-0.8L278.3,96.7 M241.1,66.8l-0.6,0.3l-1-0.3l-0.4-0.6l0.6-0.3
	l1,0.3L241.1,66.8 M239.9,67.3l0-0.7l0.7-0.7l0.7-0.1l0,0.7l-0.7,0.8L239.9,67.3 M247.8,63.4l-0.1,0.7l-0.8,0.7h-0.7l0.1-0.7
	l0.8-0.7H247.8 M247.8,64.1l-0.7,0.1l-0.9-0.5l-0.2-0.6l0.7-0.1l0.9,0.5L247.8,64.1 M205.6,117.2l0.4-0.5l1-0.2l0.6,0.3l-0.4,0.5
	l-1,0.2L205.6,117.2 M206.3,116.2l0.4,0.5l-0.1,1l-0.5,0.5l-0.4-0.5l0.1-1L206.3,116.2 M196.7,113.3l0.1,0.5l-0.3,0.6l-0.5-0.4
	l-0.1-0.5 M196.4,113.4l0.1,0.8l-0.4,0.5l-0.5-0.5l-0.1-0.7 M273.2,105.1l0.1-0.7l0.8-0.6l0.7,0l-0.1,0.7l-0.8,0.6L273.2,105.1
	 M274.8,104.4l-0.6,0.3l-1-0.3l-0.4-0.6l0.6-0.3l1,0.3L274.8,104.4 M287.5,107.1l0.3-0.6l0.9-0.4l0.6,0.2l-0.3,0.6l-0.9,0.4
	L287.5,107.1 M288.6,106l0.1,0.7l-0.6,0.8l-0.6,0.2l-0.1-0.7l0.6-0.8L288.6,106 M268.3,77.6l-0.2,0.1l-0.9-0.4l-0.3-0.6l0.4-0.1
	 M267.9,77.1l-0.7,0.4l-0.7-0.1l0.2-0.6l0.6-0.4 M222.9,163.6l-0.6-0.3l-0.3-1l0.2-0.6l0.6,0.3l0.3,0.9L222.9,163.6 M222.2,161.9
	l0.4,0.5l0,1l-0.4,0.5l-0.4-0.5l0-1L222.2,161.9 M204.7,158l-0.5-0.5l-0.1-1l0.4-0.5l0.5,0.5l0.1,1L204.7,158 M204.1,157.6l0.2-0.6
	l0.9-0.5l0.7,0.1l-0.2,0.6l-0.9,0.5L204.1,157.6 M241.2,157.9l0.3,0.6l-0.2,1l-0.6,0.4l-0.3-0.6l0.2-1L241.2,157.9 M241.6,159.2
	l-0.7-0.1l-0.7-0.8l0-0.7l0.7,0.1l0.7,0.8L241.6,159.2 M249.8,163.5l-0.4-0.6l0.1-1l0.5-0.4l0.4,0.6l-0.1,1L249.8,163.5
	 M250.6,162.1l-0.5,0.5l-1,0.1l-0.5-0.4l0.5-0.5l1-0.1L250.6,162.1 M244.9,153.5l-0.2-0.6l0.3-0.9l0.6-0.3l0.2,0.6l-0.4,1
	L244.9,153.5 M245.8,152.1l-0.4,0.6l-1,0.3l-0.6-0.3l0.4-0.6l1-0.3L245.8,152.1 M230.8,69.3l-0.7-0.1l-0.7-0.8l0-0.7l0.7,0.1
	l0.7,0.8L230.8,69.3 M230.1,69.3l-0.2-0.6l0.4-0.9l0.6-0.3l0.2,0.6l-0.4,0.9L230.1,69.3 M249.1,168.3l0.7,0.1l0.7,0.7l0,0.7
	l-0.7-0.1l-0.7-0.7L249.1,168.3 M249.7,169.8l-0.1-0.7l0.5-0.9l0.6-0.2l0.1,0.7l-0.5,0.9L249.7,169.8 M306.9,111.4l0.6,0.2l0.5,0.9
	l-0.1,0.7l-0.6-0.2l-0.5-0.9L306.9,111.4 M308.2,112l-0.6,0.4l-1-0.1l-0.4-0.5l0.6-0.4l1,0.1L308.2,112 M317,113l0.6-0.2l0.9,0.4
	l0.3,0.6l-0.6,0.2l-0.9-0.4L317,113 M317.8,114.2l-0.1-0.7l0.6-0.8l0.7-0.2l0.1,0.7l-0.6,0.8L317.8,114.2 M205.1,131.6l0.6,0.3
	l0.4,0.9l-0.2,0.6l-0.6-0.3l-0.4-0.9L205.1,131.6 M205.8,131.9l-0.1,0.7l-0.7,0.7l-0.7,0l0.1-0.7l0.7-0.7L205.8,131.9 M201,121
	l0.5,0.4l0.1,1l-0.4,0.6l-0.5-0.4l-0.1-1L201,121 M200.4,122.1l0.6-0.3l1,0.2l0.4,0.5l-0.6,0.3l-1-0.2L200.4,122.1 M299.5,167.6
	l-0.3,0.6l-0.9,0.4l-0.6-0.2l0.3-0.6l0.9-0.4L299.5,167.6 M299.2,167.5l-0.4,0.6l-1,0.3l-0.6-0.3l0.4-0.6l1-0.3L299.2,167.5
	 M303.6,172.3l0.4,0.6l-0.2,1l-0.5,0.4l-0.4-0.6l0.2-1L303.6,172.3 M302.8,173.6l0.5-0.5l1-0.1l0.5,0.4l-0.5,0.5l-1,0.1L302.8,173.6
	 M312.8,179.4l0.5,0.5l0.1,1l-0.4,0.5l-0.5-0.5l-0.1-1L312.8,179.4 M312.1,180.2l0.7,0l0.7,0.7l0,0.7l-0.7-0.1l-0.7-0.7L312.1,180.2
	 M304.4,183.6l0.2-0.6l0.8-0.6l0.7,0.1l-0.2,0.7l-0.8,0.6L304.4,183.6 M305.3,182.3l0.1,0.7l-0.5,0.9l-0.6,0.2l-0.1-0.7l0.5-0.9
	L305.3,182.3 M292.8,175.4l0.6-0.2l1,0.4l0.3,0.6l-0.6,0.2l-0.9-0.3L292.8,175.4 M293,175.9l0.6-0.3l1,0.2l0.4,0.5l-0.6,0.3l-1-0.2
	L293,175.9 M191.1,120.7l0.7-0.1l0.8,0.5l0.2,0.6l-0.7,0.1l-0.9-0.6L191.1,120.7 M191.4,121.7l0.4-0.6l1-0.2l0.6,0.3l-0.4,0.6
	l-1,0.2L191.4,121.7 M300.1,108.1l0.4-0.6l1-0.2l0.6,0.3l-0.4,0.5l-1,0.2L300.1,108.1 M300.7,107.2l0.4,0.4l0.1,1l-0.4,0.5l-0.5-0.5
	l-0.1-1L300.7,107.2 M277.3,111.3l0.2,0.6l-0.4,0.9l-0.6,0.3l-0.2-0.6l0.4-0.9L277.3,111.3 M277.6,111.9l-0.5,0.5l-1,0l-0.5-0.4
	l0.5-0.4l1,0L277.6,111.9 M284.4,115.5l-0.6,0.2l-0.9-0.4l-0.3-0.6l0.6-0.2l0.9,0.4L284.4,115.5 M282.8,114.8l0.7,0.1l0.7,0.8v0.7
	l-0.7-0.1l-0.7-0.8V114.8 M214.1,113.6l-0.1-0.7l0.5-0.9l0.6-0.2l0.1,0.7l-0.5,0.9L214.1,113.6 M214.3,112l0.4,0.5l0,1l-0.4,0.5
	l-0.4-0.5l0-1L214.3,112 M294.7,196.7l0.2-0.6l0.9-0.5l0.7,0.1l-0.2,0.6l-0.9,0.5L294.7,196.7 M294.9,195.8l0.7,0.1l0.6,0.8l0,0.7
	l-0.6-0.1l-0.6-0.8L294.9,195.8 M289.1,186l0.6,0.3l0.4,0.9l-0.2,0.6l-0.6-0.3l-0.4-1L289.1,186 M290.2,186.7l-0.5,0.4l-1,0
	l-0.5-0.5l0.5-0.4l1,0L290.2,186.7 M241.9,55.9l0.7,0.1l0.7,0.7l0,0.7l-0.7-0.1l-0.7-0.7L241.9,55.9 M243.3,56.8l-0.7,0.1l-0.8-0.6
	l-0.2-0.6l0.7-0.1l0.8,0.6L243.3,56.8 M250.9,56.9l-0.5-0.4l-0.2-1l0.3-0.6l0.5,0.4l0.2,1L250.9,56.9 M249.9,55.8l0.6-0.2l0.9,0.4
	l0.3,0.6l-0.6,0.2l-0.9-0.4L249.9,55.8 M176,126.2l0-0.7l0.6-0.8l0.7-0.1l0,0.7l-0.6,0.8L176,126.2 M176.1,125.9l0.4-0.6l1-0.3
	l0.6,0.3l-0.4,0.6l-1,0.3L176.1,125.9 M185.7,122.6l-0.7-0.1l-0.6-0.8l0-0.7l0.7,0.1l0.6,0.8L185.7,122.6 M184.8,122.6l0-0.7
	l0.6-0.8l0.7-0.1l0,0.7l-0.6,0.8L184.8,122.6 M307,116.9l0.3,0.6l-0.3,1l-0.6,0.3l-0.3-0.6l0.3-1L307,116.9 M306.4,118.6l0-0.7
	l0.7-0.8l0.7-0.1l0,0.7l-0.7,0.8L306.4,118.6 M179.5,138.1l-0.7-0.1l-0.6-0.8l0-0.7l0.7,0.1l0.6,0.8L179.5,138.1 M179.6,137
	l-0.5,0.4l-1,0l-0.5-0.4l0.5-0.4l1,0L179.6,137 M177.6,145.5l0-0.7l0.6-0.8l0.7-0.1l0,0.7l-0.7,0.8L177.6,145.5 M177.7,144.1
	l0.6,0.3l0.3,1l-0.3,0.6l-0.6-0.3l-0.3-1L177.7,144.1 M186.8,130.9l0.7,0l0.8,0.7l0.1,0.7h-0.7l-0.8-0.7L186.8,130.9 M187.7,132.4
	l-0.3-0.6l0.3-1l0.6-0.4l0.3,0.6l-0.3,1L187.7,132.4 M194.8,128.4l0.6-0.2l0.9,0.4l0.3,0.6l-0.6,0.2l-0.9-0.4L194.8,128.4
	 M195.1,129.2l0.4-0.5l1-0.2l0.6,0.3l-0.4,0.5l-1,0.2L195.1,129.2 M241.1,173.4l-0.3-0.6l0.3-1l0.6-0.4l0.3,0.6l-0.3,1L241.1,173.4
	 M240.7,172.8l0.5-0.4l1,0l0.5,0.4l-0.5,0.4l-1,0L240.7,172.8 M232,159.1l0.5,0.4l0.2,1l-0.3,0.6l-0.5-0.4l-0.2-1L232,159.1
	 M231.9,160.8l0-0.7l0.6-0.8l0.7-0.1l0,0.7l-0.7,0.8L231.9,160.8 M229.9,172.4l0.2,0.7l-0.5,0.9l-0.6,0.2l-0.1-0.7l0.5-0.9
	L229.9,172.4 M228.6,173.2l0.7-0.1l0.9,0.6l0.2,0.6l-0.7,0.1l-0.9-0.5L228.6,173.2 M229.6,182.7l-0.3-0.6l0.2-1l0.5-0.4l0.3,0.6
	l-0.2,1L229.6,182.7 M230.4,182.1l-0.6-0.2l-0.6-0.8l0.1-0.7l0.7,0.1l0.6,0.8L230.4,182.1 M281.1,105.8l0.6,0.3l0.4,1l-0.2,0.6
	l-0.6-0.3l-0.4-0.9L281.1,105.8 M281.5,107.5l-0.2-0.6l0.4-1l0.6-0.3l0.2,0.6l-0.4,1L281.5,107.5 M270.5,116.7l0.6,0.2l0.6,0.8
	l-0.1,0.7l-0.6-0.2l-0.6-0.8L270.5,116.7 M271.8,117.7l-0.7,0.1l-0.8-0.6l-0.2-0.7l0.7-0.1l0.8,0.6L271.8,117.7 M320.7,193.6
	l0.7,0.2l0.6,0.8l-0.1,0.7l-0.6-0.2l-0.6-0.8L320.7,193.6 M320.6,194.7l0.5-0.4l1,0.1l0.5,0.5l-0.6,0.4l-1-0.1L320.6,194.7
	 M258.4,58l-0.7,0.5l-0.7,0l0.1-0.7l0.8-0.6l0.4,0 M257.8,57.1l0.2,0.6l-0.4,0.9l-0.6,0.3l-0.2-0.6l0.4-1L257.8,57.1 M157.4,124.2
	l0.6-0.1l0.6,0.3l-0.4,0.5l-0.3,0.1 M157.4,124.3l0.2,0.1l0.2,0.7 M169.3,128.4l0.5,0.4l0.2,1l-0.3,0.6l-0.5-0.4l-0.2-1L169.3,128.4
	 M170.3,129.3l-0.6,0.3l-1-0.3l-0.4-0.6l0.6-0.3l1,0.3L170.3,129.3 M250.6,190.3l-0.4,0.5l-1,0.1l-0.6-0.4l0.4-0.5l1-0.1
	L250.6,190.3 M249.2,189.8l0.5,0.5l0.1,1l-0.4,0.5l-0.5-0.5l-0.1-1L249.2,189.8 M353.8,150.8l-0.6,0.3l-1-0.3l-0.4-0.6l0.6-0.3
	l1,0.3L353.8,150.8 M352.6,151.3l0-0.7l0.6-0.8l0.7-0.1l0,0.7l-0.6,0.8L352.6,151.3 M341.2,169l-0.6,0.3l-1-0.2l-0.4-0.6l0.6-0.3
	l1,0.2L341.2,169 M340.5,169.6l-0.4-0.5l0.1-1l0.5-0.5l0.4,0.5l-0.1,1L340.5,169.6 M239,152l-0.4,0.5l-1,0.2l-0.6-0.3l0.4-0.5l1-0.2
	L239,152 M237.4,152.6l0.4-0.5l1-0.1l0.6,0.4l-0.5,0.5l-1,0.1L237.4,152.6 M165.2,122.6l0.1,0.7l-0.6,0.8l-0.6,0.2l-0.1-0.7l0.6-0.8
	L165.2,122.6 M165.2,123.9l-0.6-0.2l-0.5-0.9l0.1-0.7l0.6,0.2l0.5,0.9L165.2,123.9 M177.5,153.7l-0.6-0.4l-0.3-1l0.3-0.6l0.6,0.4
	l0.3,1L177.5,153.7 M176.6,152.2l0.6,0.2l0.5,0.9l-0.1,0.7l-0.6-0.2l-0.5-0.9L176.6,152.2 M168.3,148.3l0.1-0.7l0.8-0.7l0.7,0
	l-0.1,0.7l-0.8,0.7L168.3,148.3 M168.7,146.9l0.5,0.5l0.1,1l-0.4,0.6l-0.5-0.5l-0.1-1L168.7,146.9 M160.2,148l0-0.7l0.6-0.8l0.7-0.1
	l0,0.7l-0.6,0.8L160.2,148 M161.4,146.6l-0.3,0.6l-0.9,0.4l-0.5-0.1 M159.7,147.1l0.1-0.2l0.9-0.4l0.7,0.2 M331.1,126.1l-0.6-0.2
	L330,125l0.1-0.7l0.6,0.2l0.5,0.9L331.1,126.1 M330.5,124.4l0.3,0.6l-0.3,1l-0.6,0.3l-0.3-0.6l0.3-1L330.5,124.4 M338.5,119l0.6-0.2
	l0.9,0.5l0.2,0.6l-0.7,0.2l-0.9-0.5L338.5,119 M339.5,118.7l0.2,0.6l-0.5,0.9l-0.6,0.2l-0.2-0.7l0.5-0.9L339.5,118.7 M329.7,112.6
	l-0.4-0.5l0.1-1l0.5-0.5l0.4,0.5l-0.1,1L329.7,112.6 M330.5,111.8l-0.7,0l-0.8-0.7l-0.1-0.7l0.7,0l0.8,0.7L330.5,111.8 M228.2,191.1
	l0.2,0.4l-0.3,1l-0.6,0.3l-0.2-0.6l0.3-0.9 M227.8,191.2l0.2,0.5l-0.4,1l-0.6,0.3l-0.2-0.6l0.4-0.9l0.2-0.1 M286.5,175.5l-0.3-0.6
	l0.2-1l0.5-0.4l0.3,0.6l-0.2,1L286.5,175.5 M286.1,175.1l0.3-0.6l0.9-0.3l0.6,0.2l-0.3,0.6l-1,0.4L286.1,175.1 M328,195.6l0.3-0.6
	l0.9-0.4l0.6,0.2l-0.3,0.6l-0.9,0.4L328,195.6 M328.9,194.4l0.2,0.6l-0.4,0.9l-0.6,0.3l-0.2-0.6l0.4-0.9L328.9,194.4 M254.1,200.8
	l-0.6-0.3l-0.4-0.9l0.2-0.6l0.6,0.3l0.4,0.9L254.1,200.8 M254.1,200.5l-0.5-0.4l-0.1-1l0.4-0.6l0.5,0.4l0.1,1L254.1,200.5
	 M261.9,190l-0.1,0.7l-0.8,0.6l-0.7,0l0.1-0.7l0.8-0.6L261.9,190 M260.4,191l0.5-0.5l1-0.1l0.5,0.4l-0.5,0.5l-1,0.1L260.4,191
	 M349.4,141.1l-0.2-0.7l0.5-0.9l0.6-0.2l0.2,0.6l-0.5,0.9L349.4,141.1 M350.6,139.9l-0.5,0.5l-1,0l-0.5-0.4l0.5-0.5l1,0L350.6,139.9
	 M344.1,126.3l0.7,0.1l0.7,0.8l0,0.7l-0.7-0.1l-0.7-0.8V126.3 M344.7,126.3l0.3,0.6l-0.3,1l-0.6,0.4l-0.3-0.6l0.3-1L344.7,126.3
	 M274.7,183.4l0.1-0.7l0.8-0.7l0.7,0l-0.1,0.7l-0.8,0.7L274.7,183.4 M274.8,182.4l0.7,0.1l0.6,0.8l0,0.7l-0.7-0.1l-0.7-0.8
	L274.8,182.4 M278.4,189l-0.6-0.2l-0.6-0.8l0.1-0.7l0.6,0.2l0.6,0.8L278.4,189 M277.1,188.4l0.5-0.4l1,0.1l0.5,0.5l-0.5,0.4l-1-0.1
	L277.1,188.4 M355.7,135.7l-0.6-0.3l-0.4-0.9l0.2-0.7l0.6,0.3l0.4,0.9L355.7,135.7 M354.5,135l0.5-0.4l1,0.1l0.5,0.5l-0.5,0.4
	l-1-0.1L354.5,135 M357,119l-0.2,0.6l-0.9,0.5l-0.7-0.1l0.2-0.6l0.9-0.5L357,119 M356.9,119.4l-0.6,0.3l-1-0.2l-0.4-0.5l0.6-0.3
	l1,0.2L356.9,119.4 M354.9,127l-0.2,0.6l-0.9,0.5L353,128l0.2-0.6l0.9-0.5L354.9,127 M354.6,127.9l-0.7-0.1l-0.6-0.8l0-0.7l0.7,0.1
	l0.6,0.8L354.6,127.9 M345.7,114.7l-0.1-0.2 M345.8,114.5l-0.1,0.1 M345.6,114.5l-0.5,0.3l-0.2-0.5 M335.4,144.9l0.5,0.4l0.2,1
	l-0.3,0.6l-0.5-0.4l-0.2-1L335.4,144.9 M335.8,146.7l-0.4-0.6l0.1-1l0.5-0.4l0.4,0.6l-0.1,1L335.8,146.7 M347.8,157.8l-0.2-0.7
	l0.5-0.9l0.6-0.2l0.1,0.7l-0.5,0.9L347.8,157.8 M348.8,156.4l-0.4,0.6l-1,0.3l-0.6-0.3l0.3-0.6l1-0.3L348.8,156.4 M239.8,47.5
	l0.7,0.4l-0.5,0.5l-0.9,0.1 M240.2,48.3l-0.7-0.1l-0.1-0.1 M239.9,47.4l0.2,0.2l0.1,0.7 M174.1,118l0.4,0.9l-0.2,0.7l-0.6-0.3
	l-0.4-0.9l0.1-0.2 M173.2,119l0.4-0.5l1-0.2l0.6,0.4l-0.4,0.5l-1,0.2L173.2,119 M325.9,117.7l0.6,0.2l0.6,0.8l-0.1,0.7l-0.6-0.2
	l-0.6-0.8L325.9,117.7 M326.6,117.8l0.1,0.7l-0.5,0.9l-0.6,0.2l-0.1-0.7l0.5-0.9L326.6,117.8 M355.1,167.5l0.7-0.1l0.9,0.5l0.2,0.6
	l-0.7,0.1l-0.9-0.5L355.1,167.5 M355.5,168.6l0.2-0.6l0.9-0.5l0.6,0.1l-0.2,0.6l-0.9,0.5L355.5,168.6 M236.1,196.1l0.7,0.1l0.7,0.8
	l0,0.7l-0.7-0.1l-0.6-0.8L236.1,196.1 M237.3,196.3l-0.2,0.6l-0.9,0.5l-0.6-0.2l0.2-0.6l0.9-0.5L237.3,196.3 M254.9,208.2l-0.7,0
	l-0.7-0.7l-0.1-0.7l0.7,0l0.7,0.7L254.9,208.2 M253.6,208l0.3-0.6l0.9-0.4l0.6,0.2l-0.3,0.6l-0.9,0.4L253.6,208 M244.1,206l-0.3-0.6
	l0.3-1l0.6-0.4l0.3,0.6l-0.3,1L244.1,206 M243.6,205l0.7-0.1l0.9,0.5l0.2,0.6l-0.7,0.1l-0.9-0.5L243.6,205 M361.4,162.2l-0.2,0.6
	l-0.9,0.5l-0.7-0.2l0.2-0.6l0.9-0.5L361.4,162.2 M360.9,163.3l-0.5-0.4l-0.2-1l0.3-0.6l0.5,0.4l0.2,1L360.9,163.3 M368.9,160.2
	l-0.1,0.7l-0.8,0.7h-0.7l0.1-0.7l0.8-0.7L368.9,160.2 M368.9,161.1h-0.7l-0.8-0.7l-0.1-0.7h0.7l0.8,0.7L368.9,161.1 M249.2,83.1
	l-0.6-0.3l-0.4-0.9l0.2-0.7l0.6,0.3l0.4,0.9L249.2,83.1 M248.5,82.9l0-0.7l0.7-0.8l0.7-0.1l0,0.7l-0.7,0.8L248.5,82.9 M369.6,122.2
	l0.3,0.6l-0.3,1l-0.6,0.4l-0.3-0.6l0.3-1L369.6,122.2 M368.6,123.4l0.5-0.4l1,0.1l0.5,0.5l-0.5,0.4l-1-0.1L368.6,123.4 M218.4,201.3
	l-0.2,0.6l-0.9,0.6 M217.8,201.2l0.6,0.1 M217.6,202.6l-0.1-0.5 M218,201l0.4-0.2l0.2,0.6l-0.4,0.9l-0.6,0.3 M338.7,127.3l-0.5,0.4
	l-1-0.1l-0.5-0.5l0.5-0.4l1,0.1L338.7,127.3 M338.5,127.2l-0.6,0.3l-1-0.3l-0.4-0.6l0.6-0.3l1,0.3L338.5,127.2 M248.7,47.6l0.5-0.4
	l1,0.1l0.5,0.5l-0.5,0.4l-1-0.1L248.7,47.6 M249.8,48.4l-0.2-0.6l0.4-1l0.6-0.3l0.2,0.6l-0.3,1L249.8,48.4 M224.8,197.6l-0.1,0.7
	l-0.7,0.7l-0.7,0l0.1-0.7l0.7-0.7L224.8,197.6 M224.6,197.8l-0.4,0.6l-1,0.3l-0.6-0.3l0.4-0.6l1-0.3L224.6,197.8 M264,183.1
	l-0.1-0.7l0.5-0.9l0.6-0.2l0.1,0.7l-0.6,0.9L264,183.1 M265.2,181.8l-0.5,0.5l-1,0.1l-0.6-0.4l0.5-0.5l1-0.1L265.2,181.8
	 M363.1,125.3l-0.6,0.3l-1-0.2l-0.4-0.5l0.6-0.3l1,0.2L363.1,125.3 M361.4,125.4l0.6-0.4l1,0.1l0.5,0.5l-0.5,0.4l-1-0.1L361.4,125.4
	 M376,148.9l0.6-0.3l1,0.3l0.4,0.6l-0.6,0.3l-1-0.3L376,148.9 M376.6,149.9l0.2-0.7l0.8-0.6l0.7,0.1l-0.2,0.6l-0.8,0.6L376.6,149.9
	 M366.7,132l-0.7-0.1l-0.7-0.8l0-0.7l0.7,0.1l0.7,0.8L366.7,132 M365.7,131.9l0.1-0.7l0.8-0.7l0.7,0l-0.1,0.7l-0.8,0.7H365.7
	 M377.6,143.4l-0.4-0.5l0-1l0.4-0.5l0.4,0.5l0,1L377.6,143.4 M377.8,143.1l-0.4-0.6l0.1-1l0.5-0.5l0.4,0.5l-0.1,1L377.8,143.1
	 M343,197.8l0.1,0.7l-0.5,0.9l-0.6,0.2l-0.1-0.7l0.5-0.9L343,197.8 M342.2,198l0.5,0.5l0.1,1l-0.4,0.5l-0.5-0.5l0-1L342.2,198
	 M227.9,205.7l-0.5,0.4l-1-0.1l-0.5-0.5l0.5-0.4l1,0.1L227.9,205.7 M227.3,206.4l-0.5-0.5l-0.1-1l0.4-0.5l0.5,0.5l0.1,1L227.3,206.4
	 M344,207.6l-0.4-0.5l0-1l0.5-0.5l0.4,0.5l0,1L344,207.6 M344.7,206.5l-0.6,0.3l-1-0.2l-0.4-0.5l0.6-0.3l1,0.2L344.7,206.5
	 M390.2,146.6l-0.5,0.5l-1,0.1l-0.5-0.4l0.5-0.5l1-0.1L390.2,146.6 M389.8,147.3l-0.6-0.3l-0.4-0.9l0.2-0.6l0.6,0.3l0.4,0.9
	L389.8,147.3 M379.5,133.8l-0.1-0.7l0.5-0.9l0.6-0.2l0.1,0.7l-0.5,0.9L379.5,133.8 M379.9,133.7l-0.1-0.7l0.5-0.9l0.6-0.2l0.1,0.7
	l-0.5,0.9L379.9,133.7 M372.1,135.3l0.6-0.2l0.9,0.5l0.2,0.6l-0.6,0.2l-0.9-0.5L372.1,135.3 M372.4,136.2l0.4-0.6l1-0.3l0.6,0.3
	l-0.4,0.6l-1,0.3L372.4,136.2 M347.9,119.8l0.7-0.2l0.9,0.4l0.3,0.6l-0.6,0.2l-0.9-0.4L347.9,119.8 M349.3,120.8l-0.6-0.3l-0.4-0.9
	l0.2-0.6l0.6,0.3l0.4,0.9L349.3,120.8 M374.9,156.4l-0.4,0.5l-1,0.2l-0.6-0.4l0.4-0.5l1-0.2L374.9,156.4 M373.4,156l0.5,0.4l0.2,1
	l-0.3,0.6l-0.5-0.4l-0.2-1L373.4,156 M344.6,133.8l0.6-0.3l1,0.2l0.4,0.5l-0.6,0.3l-1-0.2L344.6,133.8 M345.5,133.2l0.3,0.6l-0.3,1
	l-0.6,0.4l-0.3-0.6l0.3-1L345.5,133.2 M221.2,210l-0.5,0.4l-1,0l-0.5-0.4l0.5-0.4l1,0L221.2,210 M221,209.9l-0.6,0.3l-1-0.2
	l-0.4-0.5l0.6-0.3l1,0.2L221,209.9 M315.5,210.4l-0.3,0.6l-1,0.4l-0.6-0.2l0.3-0.6l0.9-0.4L315.5,210.4 M314.5,211.5l-0.1-0.7
	l0.5-0.9l0.6-0.2l0.1,0.7l-0.5,0.9L314.5,211.5 M371,169.3l0.5-0.4l1,0.1l0.5,0.5l-0.5,0.4l-1-0.1L371,169.3 M372.5,168.8l-0.2,0.6
	l-0.9,0.5l-0.6-0.2l0.2-0.6l0.9-0.5L372.5,168.8 M394.8,158.8l-0.2-0.6l0.4-1l0.6-0.3l0.2,0.6l-0.4,0.9L394.8,158.8 M394.4,158.1
	l0.5-0.4l1,0l0.5,0.4l-0.5,0.4l-1,0L394.4,158.1 M386.7,159.3l-0.4,0.5l-1,0.2l-0.6-0.4l0.4-0.5l1-0.2L386.7,159.3 M384.9,159.7
	l0.6-0.4l1,0.1l0.4,0.5l-0.6,0.3l-1-0.1L384.9,159.7 M395.7,167.1l-0.4,0.6l-1,0.2l-0.6-0.3l0.4-0.6l1-0.2L395.7,167.1 M394.7,168.1
	l-0.2-0.7l0.5-0.9l0.6-0.2l0.2,0.7l-0.5,0.9L394.7,168.1 M387.4,167.8l-0.5,0.4l-1,0l-0.5-0.4l0.5-0.4l1,0L387.4,167.8 M385.7,168.2
	l0.5-0.5l1-0.1l0.5,0.4l-0.5,0.5l-1,0.1L385.7,168.2 M377.3,163.7l-0.5,0.4l-1,0l-0.5-0.5l0.5-0.4l1,0L377.3,163.7 M376,164.4l0-0.7
	l0.7-0.7l0.7,0l0,0.7l-0.7,0.7L376,164.4 M258.7,158.6l0.4,0.6l-0.2,1l-0.5,0.4L258,160l0.2-1L258.7,158.6 M259.3,159.9l-0.7-0.1
	l-0.7-0.7l0-0.7l0.7,0.1l0.7,0.7L259.3,159.9 M395.5,135.8l-0.3-0.6l0.3-1l0.6-0.3l0.3,0.6l-0.3,1L395.5,135.8 M396.6,134.8
	l-0.6,0.3l-1-0.3l-0.4-0.6l0.6-0.3l1,0.3L396.6,134.8 M392,176.8l-0.7,0l-0.7-0.7l-0.1-0.7l0.7,0l0.7,0.7L392,176.8 M390.8,176.7
	l0.2-0.7l0.9-0.5l0.7,0.1l-0.2,0.6l-0.8,0.6L390.8,176.7 M355.4,177.8l0.2,0.6l-0.4,0.9l-0.6,0.3l-0.2-0.6l0.4-0.9L355.4,177.8
	 M355.4,179.4l-0.5-0.4l-0.2-1l0.3-0.6l0.5,0.4l0.2,1L355.4,179.4 M349.7,195.8l-0.5-0.4l-0.2-1l0.3-0.6l0.5,0.4l0.2,1L349.7,195.8
	 M349.9,195.5l-0.5-0.4l-0.1-1l0.4-0.6l0.5,0.4l0.1,1L349.9,195.5 M398.9,177.3l-0.3-0.6l0.3-1l0.6-0.4l0.3,0.6l-0.3,1L398.9,177.3
	 M399.8,176.7l-0.7-0.1l-0.6-0.8l0-0.7l0.6,0.1l0.6,0.8L399.8,176.7 M406.7,135l0.5,0.5l0.1,1l-0.4,0.5l-0.5-0.5l-0.1-1L406.7,135
	 M407.1,135.3L407,136l-0.8,0.6l-0.7,0l0.1-0.7l0.8-0.6L407.1,135.3 M401.1,157.2l0.1-0.7l0.8-0.7l0.7,0l-0.1,0.7l-0.8,0.7
	L401.1,157.2 M402.6,156.8l-0.7,0l-0.8-0.7l-0.1-0.7l0.7,0l0.8,0.6L402.6,156.8 M412.3,140.4l0,0.7l-0.6,0.8L411,142l0-0.7l0.6-0.8
	L412.3,140.4 M411.4,140.5l0.4,0.5l0,1l-0.5,0.5l-0.4-0.5l0-1L411.4,140.5 M398.6,196.7l0.6-0.3l1,0.3l0.4,0.6l-0.6,0.3l-1-0.3
	L398.6,196.7 M399.9,197.7l-0.5-0.5l0-1l0.4-0.5l0.5,0.5l0,1L399.9,197.7 M407.5,177.3l0.4,0.5l0,1l-0.5,0.5l-0.4-0.5l0-1
	L407.5,177.3 M408.1,177.9l-0.4,0.5l-1,0.2l-0.6-0.3l0.4-0.6l1-0.2L408.1,177.9 M402.3,169.5l0.7-0.1l0.8,0.6l0.1,0.7l-0.7,0.1
	l-0.8-0.6L402.3,169.5 M403.8,169.7l-0.5,0.5l-1,0l-0.5-0.4l0.5-0.5l1,0L403.8,169.7 M340.5,178.8l0.7-0.1l0.9,0.5l0.2,0.6l-0.7,0.1
	l-0.9-0.5L340.5,178.8 M341.8,178.7l-0.2,0.7l-0.9,0.6l-0.7-0.1l0.2-0.6l0.9-0.6L341.8,178.7 M411.5,171.2l0.4,0.6l-0.1,1l-0.5,0.5
	l-0.4-0.6l0.1-1L411.5,171.2 M412.2,172.3l-0.7,0.1l-0.9-0.5l-0.2-0.6l0.7-0.1l0.9,0.5L412.2,172.3 M388.1,128.5l-0.6,0.4l-1-0.1
	l-0.5-0.5l0.6-0.4l1,0.1L388.1,128.5 M386.7,127.7l0.5,0.5l0.1,1l-0.4,0.5l-0.5-0.5l-0.1-1L386.7,127.7 M411.7,161.1l-0.7,0.1
	l-0.9-0.5l-0.2-0.6l0.7-0.1l0.9,0.5L411.7,161.1 M410.6,161.3l0-0.7l0.6-0.8l0.7-0.1l0,0.7l-0.6,0.8L410.6,161.3 M405.5,191.4l0.7,0
	l0.8,0.6l0.1,0.7l-0.7,0l-0.8-0.6L405.5,191.4 M406.5,192.8l-0.3-0.6l0.2-1l0.5-0.4l0.3,0.6l-0.2,1L406.5,192.8 M402,162.7l-0.4,0.5
	l-1,0.2l-0.6-0.3l0.4-0.5l1-0.2L402,162.7 M401.5,162.3l-0.3,0.6l-0.9,0.4l-0.6-0.2l0.3-0.6l0.9-0.4L401.5,162.3 M415.4,178.9
	l0.5,0.5l0.1,1l-0.4,0.5l-0.5-0.5l-0.1-1L415.4,178.9 M415.4,180.6l-0.2-0.6l0.4-0.9l0.6-0.3l0.2,0.7l-0.4,0.9L415.4,180.6
	 M365.8,191.8l-0.5-0.5l-0.1-1l0.4-0.6l0.5,0.5l0.1,1L365.8,191.8 M365,190.5l0.7,0.1l0.7,0.8v0.7l-0.7-0.1l-0.7-0.8V190.5
	 M212.6,292.9l-0.1-0.6l-0.4-0.6l-0.5-0.3h-1.2l-0.7,0.3l-0.8,0.6l-0.5,0.6l-0.6,0.9l-0.4,1.5l0.1,1.5l0.4,0.6l0.5,0.3h1.2l0.7-0.3
	l0.8-0.6l0.5-0.6 M215.2,291.4l-1.9,6.3 M214.2,294.7l1.2-0.9l0.7-0.3h0.9l0.5,0.3l0,0.9l-0.9,3 M223.6,293.5l-1.3,4.2 M223.3,294.4
	l-0.4-0.6l-0.5-0.3h-0.9l-0.7,0.3l-0.8,0.6l-0.6,0.9l-0.2,0.6l0,0.9l0.4,0.6l0.5,0.3h0.9l0.7-0.3l0.8-0.6 M225.9,293.5l-1.3,4.2
	 M225.6,294.7l1.2-0.9l0.7-0.3h0.9l0.5,0.3l0,0.9l-0.9,3 M232.6,291.4l-1.5,5.1l0,0.9l0.5,0.3h0.6 M231.1,293.5h2.1 M236.4,293.5
	l-0.7,0.3l-0.8,0.6l-0.6,0.9l-0.2,0.6l0,0.9l0.4,0.6l0.5,0.3h0.9l0.7-0.3l0.8-0.6l0.6-0.9l0.2-0.6l0-0.9l-0.4-0.6l-0.5-0.3H236.4
	 M244.2,293.5l-1.4,4.8l-0.6,0.9l-1.1,0.6h-0.9l-0.5-0.3 M244,294.4l-0.4-0.6l-0.5-0.3h-0.9l-0.7,0.3l-0.8,0.6l-0.6,0.9l-0.2,0.6
	l0,0.9l0.4,0.6l0.5,0.3h0.9l0.7-0.3l0.8-0.6 M246.6,293.5l-1.3,4.2 M246.3,294.7l1.2-0.9l0.7-0.3h0.9l0.5,0.3l0,0.9l-0.9,3
	 M253.6,293.5l-0.7,0.3l-0.8,0.6l-0.6,0.9l-0.2,0.6l0,0.9l0.4,0.6l0.5,0.3h0.9l0.7-0.3l0.8-0.6l0.6-0.9l0.2-0.6l0-0.9l-0.4-0.6
	l-0.5-0.3H253.6 M258,293.5l-1.9,6.3 M257.8,294.4l0.8-0.6l0.7-0.3h0.9l0.5,0.3l0.4,0.6l0,0.9l-0.2,0.6l-0.6,0.9l-0.8,0.6l-0.7,0.3
	H258l-0.5-0.3l-0.4-0.6 M266.5,294.4l-0.1-0.6l-0.8-0.3h-0.9l-1,0.3l-0.5,0.6l0.1,0.6l0.5,0.3l1.4,0.3l0.5,0.3l0,0.9l-0.5,0.6
	l-1,0.3h-0.9l-0.8-0.3l-0.1-0.6 M271.9,293.5l-1.3,4.2 M271.5,294.7l1.2-0.9l0.7-0.3h0.9l0.5,0.3l0,0.9l-0.9,3 M274.8,294.7l1.2-0.9
	l0.7-0.3h0.9l0.5,0.3l0,0.9l-0.9,3 M282,293.5l-0.7,0.3l-0.8,0.6l-0.6,0.9l-0.2,0.6l0,0.9l0.4,0.6l0.5,0.3h0.9l0.7-0.3l0.8-0.6
	l0.6-0.9l0.2-0.6l0-0.9l-0.4-0.6l-0.5-0.3H282 M286.5,293.5l-1.3,4.2 M286,295.3l0.6-0.9l0.8-0.6l0.7-0.3h0.9 M293.5,294.4l-0.4-0.6
	l-0.5-0.3h-0.9l-0.7,0.3l-0.8,0.6l-0.6,0.9l-0.2,0.6l0,0.9l0.4,0.6l0.5,0.3h0.9l0.7-0.3l0.8-0.6 M295,295.3h3.6l0.2-0.6l-0.1-0.6
	l-0.7-0.6H297l-0.7,0.3l-0.8,0.6L295,295.3l-0.2,0.6l0,0.9l0.4,0.6l0.5,0.3h0.9l0.7-0.3l0.8-0.6 M301.2,293.5l-0.9,3l0,0.9l0.5,0.3
	h0.9l0.7-0.3l1.2-0.9 M304.5,293.5l-1.3,4.2 M309.7,294.4l-0.1-0.6l-0.8-0.3h-0.9l-1,0.3l-0.5,0.6l0.1,0.6l0.5,0.3l1.4,0.3l0.5,0.3
	l0,0.9l-0.5,0.6l-1,0.3h-0.9l-0.8-0.3l-0.1-0.6 M311.3,297.1l-0.4,0.3l0.2,0.3l0.4-0.3L311.3,297.1"/>
</svg>
